<svg width="24" height="24" viewBox="0 0 24 24" fill="none" xmlns="http://www.w3.org/2000/svg">
<path d="M17 2C19.7614 2 22 4.23858 22 7V17C22 19.7614 19.7614 22 17 22H7C4.23858 22 2 19.7614 2 17V7C2 4.23858 4.23858 2 7 2H17ZM9.49609 7.13184C9.18663 6.955 8.80634 6.95591 8.49805 7.13477C8.22818 7.29138 8.04924 7.56371 8.00879 7.86816L8 8V16C8 16.3565 8.18973 16.6863 8.49805 16.8652C8.80634 17.0441 9.18663 17.045 9.49609 16.8682L16.4961 12.8682C16.8077 12.6901 17 12.3589 17 12C17 11.6411 16.8077 11.3099 16.4961 11.1318L9.49609 7.13184ZM13.9844 12L10 14.2764V9.72266L13.9844 12Z" fill="#FDFBF5"/>
</svg>
