<svg width="24" height="24" viewBox="0 0 24 24" fill="none" xmlns="http://www.w3.org/2000/svg">
<circle cx="12" cy="12" r="10" fill="#FE6F61"/>
<path d="M14.8995 16.3137L12.0711 13.4853L9.24264 16.3137C8.85211 16.7042 8.21895 16.7042 7.82843 16.3137C7.4379 15.9232 7.4379 15.29 7.82843 14.8995L10.6569 12.0711L7.82843 9.24265C7.4379 8.85212 7.4379 8.21896 7.82843 7.82843C8.21895 7.43791 8.85211 7.43791 9.24264 7.82843L12.0711 10.6569L14.8995 7.82843C15.29 7.43791 15.9232 7.43791 16.3137 7.82843C16.7042 8.21896 16.7042 8.85212 16.3137 9.24265L13.4853 12.0711L16.3137 14.8995C16.7042 15.29 16.7042 15.9232 16.3137 16.3137C15.9232 16.7042 15.29 16.7042 14.8995 16.3137Z" fill="#FDFBF5"/>
</svg>
