<svg width="24" height="24" viewBox="0 0 24 24" fill="none" xmlns="http://www.w3.org/2000/svg">
<path d="M18.2002 8C18.2002 6.38856 16.8138 5 15 5C13.1862 5 11.7998 6.38856 11.7998 8C11.7998 9.61144 13.1862 11 15 11C16.8138 11 18.2002 9.61144 18.2002 8ZM15 13C12.1036 13 9.87776 15.3064 9.20215 18.2412C9.15924 18.4276 9.20828 18.5901 9.33887 18.7305C9.48042 18.8826 9.71743 19 10 19H20C20.2826 19 20.5196 18.8826 20.6611 18.7305C20.7917 18.5901 20.8408 18.4276 20.7979 18.2412C20.1222 15.3064 17.8964 13 15 13ZM4 15V13H2C1.44772 13 1 12.5523 1 12C1 11.4477 1.44772 11 2 11H4V9C4 8.44772 4.44772 8.00001 5 8C5.55228 8 6 8.44772 6 9V11H8C8.55228 11 9 11.4477 9 12C9 12.5523 8.55228 13 8 13H6V15C6 15.5523 5.55228 16 5 16C4.44772 16 4 15.5523 4 15ZM20.2002 8C20.2002 9.54627 19.4781 10.9047 18.3584 11.8145C20.6318 12.9976 22.1784 15.3224 22.7471 17.793C23.1748 19.6516 21.5773 21 20 21H10C8.42272 21 6.82523 19.6516 7.25293 17.793C7.82155 15.3226 9.36762 12.9977 11.6406 11.8145C10.5213 10.9047 9.79981 9.54599 9.7998 8C9.79981 5.19316 12.1747 3 15 3C17.8253 3 20.2002 5.19316 20.2002 8Z" fill="#1F1F1F"/>
</svg>
