<svg width="24" height="24" viewBox="0 0 24 24" fill="none" xmlns="http://www.w3.org/2000/svg">
<path d="M10.6667 20V17.9707C9.68852 17.9181 8.78955 17.7892 7.96552 17.6016L7.64716 19.1963C7.53876 19.7377 7.0119 20.0888 6.4704 19.9805C5.92895 19.8721 5.57792 19.3452 5.68622 18.8037L6.04364 17.0137C5.48699 16.7957 4.97592 16.5516 4.50946 16.2871L3.99872 17.0547C3.69237 17.5142 3.07153 17.6384 2.612 17.332C2.15248 17.0257 2.02831 16.4048 2.33466 15.9453L2.86786 15.1436C1.75123 14.1925 1.05874 13.173 0.73798 12.3711C0.533111 11.8584 0.782926 11.2764 1.2956 11.0713C1.8083 10.8664 2.39033 11.1162 2.5954 11.6289C3.09714 12.8827 5.63886 16 11.6667 16C17.6945 16 20.2362 12.8827 20.738 11.6289C20.943 11.1162 21.5251 10.8664 22.0378 11.0713C22.5505 11.2764 22.8003 11.8584 22.5954 12.3711C22.2746 13.1731 21.5815 14.1924 20.4645 15.1436L20.9987 15.9453C21.3051 16.4048 21.1809 17.0257 20.7214 17.332C20.2619 17.6384 19.641 17.5142 19.3347 17.0547L18.8229 16.2871C18.3564 16.5515 17.8454 16.7958 17.2888 17.0137L17.6472 18.8037C17.7555 19.3452 17.4044 19.8721 16.863 19.9805C16.3215 20.0888 15.7946 19.7377 15.6862 19.1963L15.3669 17.6016C14.5431 17.7891 13.6445 17.9181 12.6667 17.9707V20C12.6667 20.5523 12.219 21 11.6667 21C11.1144 21 10.6667 20.5523 10.6667 20Z" fill="#1F1F1F"/>
</svg>
