<svg width="24" height="24" viewBox="0 0 24 24" fill="none" xmlns="http://www.w3.org/2000/svg">
<path d="M12.2003 10C12.2003 8.38856 10.8139 7 9.00006 7C7.18621 7 5.79986 8.38856 5.79986 10C5.79986 11.6114 7.18621 13 9.00006 13C10.8139 13 12.2003 11.6114 12.2003 10ZM9.00006 15C6.10369 15 3.87781 17.3064 3.2022 20.2412C3.1593 20.4276 3.20834 20.5901 3.33892 20.7305C3.48048 20.8826 3.71749 21 4.00006 21H14.0001C14.2826 21 14.5196 20.8826 14.6612 20.7305C14.7918 20.5901 14.8408 20.4276 14.7979 20.2412C14.1223 17.3064 11.8964 15 9.00006 15ZM14.2003 10C14.2003 11.5463 13.4781 12.9047 12.3585 13.8145C14.6319 14.9976 16.1784 17.3224 16.7471 19.793C17.1748 21.6516 15.5773 23 14.0001 23H4.00006C2.42277 23 0.825288 21.6516 1.25299 19.793C1.8216 17.3226 3.36768 14.9977 5.64068 13.8145C4.52135 12.9047 3.79986 11.546 3.79986 10C3.79986 7.19316 6.17471 5 9.00006 5C11.8254 5 14.2003 7.19316 14.2003 10Z" fill="#1F1F1F"/>
<path d="M15.0001 1C17.8254 1 20.2003 3.19316 20.2003 6C20.2003 7.54627 19.4781 8.90474 18.3585 9.81445C20.6319 10.9976 22.1784 13.3224 22.7471 15.793C23.1748 17.6516 21.5773 19 20.0001 19H16.5264C16.3039 18.3046 16.0036 17.6304 15.6309 17H20.0001C20.2826 17 20.5196 16.8826 20.6612 16.7305C20.7918 16.5901 20.8408 16.4276 20.7979 16.2412C20.1223 13.3064 17.8964 11 15.0001 11C14.6844 11 14.3768 11.0284 14.0782 11.0811C14.1575 10.734 14.2003 10.3725 14.2003 10C14.2003 9.60992 14.1521 9.23225 14.0655 8.87012C14.3594 8.95376 14.6726 8.99999 15.0001 9C16.8139 9 18.2003 7.61144 18.2003 6C18.2002 4.38856 16.8139 3 15.0001 3C13.2644 3.00003 11.9203 4.27146 11.8077 5.79297C11.2326 5.43814 10.5824 5.18981 9.88873 5.07422C10.3431 2.72556 12.4941 1.00003 15.0001 1Z" fill="#1F1F1F"/>
</svg>
