<svg width="24" height="24" viewBox="0 0 24 24" fill="none" xmlns="http://www.w3.org/2000/svg">
<path d="M21 12C21 7.02944 16.9706 3 12 3C7.02944 3 3 7.02944 3 12C3 16.9706 7.02944 21 12 21C16.9706 21 21 16.9706 21 12ZM23 12C23 18.0751 18.0751 23 12 23C5.92487 23 1 18.0751 1 12C1 5.92487 5.92487 1 12 1C18.0751 1 23 5.92487 23 12Z" fill="#1F1F1F"/>
<path d="M13.5 7.5C13.5 8.32843 12.8284 9 12 9C11.1716 9 10.5 8.32843 10.5 7.5C10.5 6.67157 11.1716 6 12 6C12.8284 6 13.5 6.67157 13.5 7.5Z" fill="#1F1F1F"/>
<path d="M12.259 10H11.7142C11.3083 10 10.9761 10.3229 10.9645 10.7286L10.7793 17.2215C10.7632 17.7847 11.2154 18.25 11.7789 18.25H12.2174C12.7822 18.25 13.235 17.7825 13.2169 17.2179L13.0086 10.726C12.9956 10.3213 12.6638 10 12.259 10Z" fill="#1F1F1F"/>
</svg>
