<svg width="24" height="24" viewBox="0 0 24 24" fill="none" xmlns="http://www.w3.org/2000/svg">
<path d="M6.44135 2C5.1501 2.00005 4.00398 2.82677 3.59564 4.05176L3.0517 5.68359C2.33417 7.83619 2.33417 10.1638 3.0517 12.3164C3.63226 14.0583 3.63226 15.9417 3.0517 17.6836L2.87006 18.2266C2.25152 20.083 3.63395 22 5.59076 22H17.5585C18.8498 22 19.9959 21.1732 20.4042 19.9482L20.9482 18.3164C21.6657 16.1638 21.6657 13.8362 20.9482 11.6836C20.3676 9.94171 20.3676 8.05829 20.9482 6.31641L21.1298 5.77344C21.7484 3.91703 20.3659 2 18.4091 2H6.44135ZM18.4091 4C19.0009 4 19.4195 4.58015 19.2324 5.1416L19.0517 5.68359C18.3342 7.83619 18.3342 10.1638 19.0517 12.3164C19.6323 14.0583 19.6323 15.9417 19.0517 17.6836L18.5068 19.3164C18.3706 19.7246 17.9888 20 17.5585 20H5.59076C4.99894 20 4.58037 19.4199 4.76752 18.8584L4.94818 18.3164C5.66572 16.1638 5.66572 13.8362 4.94818 11.6836C4.36763 9.94171 4.36763 8.05829 4.94818 6.31641L5.4931 4.68359C5.62928 4.27543 6.01105 4.00005 6.44135 4H18.4091Z" fill="#1F1F1F"/>
<path d="M7.99994 14C7.44766 14 6.99994 14.4477 6.99994 15C6.99994 15.5523 7.44766 16 7.99994 16H15.9999C16.5522 16 16.9999 15.5523 16.9999 15C16.9999 14.4477 16.5522 14 15.9999 14H7.99994Z" fill="#1F1F1F"/>
<path d="M7.99994 8C7.44766 8 6.99994 8.44772 6.99994 9C6.99994 9.55228 7.44766 10 7.99994 10H15.9999C16.5522 10 16.9999 9.55228 16.9999 9C16.9999 8.44772 16.5522 8 15.9999 8H7.99994Z" fill="#1F1F1F"/>
<path d="M7.99994 11C7.44766 11 6.99994 11.4477 6.99994 12C6.99994 12.5523 7.44766 13 7.99994 13H15.9999C16.5522 13 16.9999 12.5523 16.9999 12C16.9999 11.4477 16.5522 11 15.9999 11H7.99994Z" fill="#1F1F1F"/>
</svg>
