<svg width="24" height="24" viewBox="0 0 24 24" fill="none" xmlns="http://www.w3.org/2000/svg">
<path d="M11.5546 2.1211C12.2191 1.82278 12.8868 2.13441 13.2343 2.33985C13.6851 2.60634 14.154 3.02147 14.6113 3.50489C15.5371 4.48351 16.5755 5.91552 17.5293 7.56739C18.4828 9.21906 19.2032 10.8341 19.5878 12.125C19.7778 12.7628 19.9028 13.3767 19.9082 13.9004C19.9126 14.331 19.8394 15.1369 19.1328 15.5449C18.4753 15.9244 17.6587 15.8828 17.0419 15.8125C16.3933 15.7385 15.5842 15.5724 14.8837 15.4561C13.3425 15.2 11.9694 15.122 10.9238 15.7256L9.71089 16.4248L11.9746 20.3457C12.1071 20.5753 12.1428 20.8484 12.0742 21.1045C12.0055 21.3607 11.838 21.5793 11.6084 21.7119L10.2226 22.5117C9.4474 22.9592 8.6747 22.7555 8.11812 22.3779C7.60541 22.0301 7.18238 21.4887 6.84761 20.9629C6.19757 19.942 5.66909 18.6377 5.36031 17.7041L4.16695 17.9541C3.41456 18.1111 2.63737 17.774 2.248 17.0996L1.23824 15.3506C0.848887 14.6762 0.945734 13.8348 1.45796 13.2617L2.31734 12.2988C2.16867 11.6802 2.44373 11.0193 3.01167 10.6914L6.76558 8.52442C7.87455 7.88415 8.58244 6.7438 9.21968 5.47461C9.51402 4.88836 9.82989 4.19824 10.1289 3.667C10.3991 3.18693 10.7627 2.63505 11.2851 2.28028C11.3281 2.2485 11.3739 2.21768 11.4228 2.18946L11.5546 2.1211ZM7.48433 17.7109C7.76032 18.4375 8.1291 19.2525 8.53413 19.8887C8.81809 20.3346 9.06482 20.6035 9.24019 20.7227C9.25553 20.7331 9.27013 20.7397 9.2812 20.7461L9.74214 20.4795L7.97945 17.4258L7.48433 17.7109ZM4.38277 12.209C4.44272 12.6293 4.31797 13.0632 4.02632 13.3897L3.04781 14.4834L3.9023 15.9658L5.10445 15.7148L5.24507 15.6914C5.68267 15.6356 6.11937 15.7435 6.47554 15.9834L7.84566 15.1943L8.77046 14.6592C8.24996 14.1082 7.81706 13.5451 7.45894 12.9248C7.10082 12.3045 6.83009 11.6482 6.61324 10.9219L4.38277 12.209ZM11.0078 6.37207C10.443 7.49702 9.66937 8.86737 8.39156 9.83789C8.59905 10.6768 8.85203 11.337 9.19136 11.9248C9.53187 12.5146 9.97933 13.0655 10.6054 13.667C12.1667 13.0577 13.8846 13.2619 15.2119 13.4824C15.2421 13.4874 15.272 13.493 15.3017 13.498C14.5537 12.5914 13.7644 11.4453 13.0263 10.167C12.1945 8.72625 11.5397 7.31336 11.1308 6.11914C11.0906 6.20079 11.051 6.28592 11.0078 6.37207ZM12.7373 4.4668C12.7738 4.63545 12.8207 4.82645 12.8837 5.03809C13.212 6.13986 13.8585 7.60944 14.7578 9.167C15.657 10.7245 16.6064 12.0193 17.3964 12.8545C17.5477 13.0144 17.6899 13.1498 17.8173 13.2656C17.7808 13.0974 17.7346 12.9072 17.6718 12.6963C17.3436 11.5945 16.6961 10.1251 15.7968 8.56739C14.8975 7.00967 13.9482 5.71409 13.1582 4.87891C13.0065 4.71863 12.8649 4.58274 12.7373 4.4668ZM21.7998 7.47168C22.3408 7.36097 22.8696 7.71001 22.9804 8.25098C23.0911 8.79205 22.7422 9.32092 22.2011 9.43164L20.6523 9.74805C20.1112 9.85877 19.5824 9.50983 19.4716 8.96875C19.3612 8.42789 19.7101 7.89985 20.2509 7.78907L21.7998 7.47168ZM20.8671 4.48731C21.3453 4.21158 21.9563 4.37553 22.2324 4.85352C22.5085 5.33171 22.3452 5.9435 21.8671 6.21973L20.1347 7.21973C19.6564 7.49587 19.0447 7.33181 18.7685 6.85352C18.4924 6.37524 18.6565 5.76343 19.1347 5.48731L20.8671 4.48731ZM18.2529 2.5918C18.6193 2.17901 19.2509 2.14079 19.664 2.50684C20.0772 2.87324 20.1153 3.50573 19.749 3.91895L18.7001 5.10157C18.3337 5.51479 17.7013 5.55295 17.288 5.18653C16.8751 4.82018 16.837 4.18857 17.2031 3.77539L18.2529 2.5918Z" fill="#1F1F1F"/>
</svg>
