<svg width="24" height="24" viewBox="0 0 24 24" fill="none" xmlns="http://www.w3.org/2000/svg">
<path d="M18.1014 3.97348C18.1014 3.4212 17.6537 2.97348 17.1014 2.97348H7.10144C6.54916 2.97348 6.10144 3.4212 6.10144 3.97348V19.9735C6.10144 20.5258 6.54916 20.9735 7.10144 20.9735H17.1014C17.6537 20.9735 18.1014 20.5258 18.1014 19.9735V3.97348ZM13.5018 9.22348C13.5018 8.59294 12.9364 7.97348 12.1014 7.97348C11.2665 7.97348 10.7011 8.59294 10.701 9.22348C10.7011 9.85402 11.2665 10.4735 12.1014 10.4735C12.9364 10.4735 13.5018 9.85402 13.5018 9.22348ZM12.1014 12.4735C10.7294 12.4735 9.61476 13.5271 9.23523 14.9735H14.9677C14.5881 13.5271 13.4735 12.4735 12.1014 12.4735ZM15.5018 9.22348C15.5018 10.0207 15.2073 10.7319 14.7294 11.285C15.9123 12.0982 16.6959 13.4208 16.9774 14.7772C17.2476 16.0789 16.1362 16.9735 15.1014 16.9735H9.10144C8.06669 16.9735 6.95533 16.0789 7.22546 14.7772L7.27136 14.5721C7.58645 13.2887 8.34966 12.0572 9.47253 11.285C8.99481 10.7319 8.70105 10.0205 8.70105 9.22348C8.70105 7.36874 10.2854 5.97348 12.1014 5.97348C13.9174 5.97348 15.5018 7.36874 15.5018 9.22348ZM20.1014 19.9735C20.1014 21.6303 18.7583 22.9735 17.1014 22.9735H7.10144C5.44459 22.9735 4.10144 21.6303 4.10144 19.9735V3.97348C4.10144 2.31663 5.44459 0.97348 7.10144 0.97348H17.1014C18.7583 0.973481 20.1014 2.31663 20.1014 3.97348V19.9735Z" fill="#1F1F1F"/>
</svg>
