<svg width="24" height="24" viewBox="0 0 24 24" fill="none" xmlns="http://www.w3.org/2000/svg">
<path d="M15 6C15 4.34315 13.6569 3 12 3C10.3432 3.00001 9.00001 4.34316 9.00001 6V7H15V6ZM15 10V9H9.00001V10C9.00001 10.5523 8.55229 11 8.00001 11C7.44773 11 7.00001 10.5523 7.00001 10V9H5.73438C5.23692 9.00012 4.81559 9.36595 4.74512 9.8584L3.31641 19.8584C3.23037 20.4607 3.69731 20.9998 4.30567 21H19.6943C20.3027 20.9998 20.7696 20.4607 20.6836 19.8584L19.2559 9.8584C19.1854 9.36587 18.7632 9.00009 18.2656 9H17V10C17 10.5523 16.5523 11 16 11C15.4477 11 15 10.5523 15 10ZM17 7H18.2656C19.7585 7.00009 21.0242 8.09828 21.2354 9.57617L22.6641 19.5762C22.9219 21.3832 21.5197 22.9998 19.6943 23H4.30567C2.48036 22.9998 1.07808 21.3832 1.33594 19.5762L2.76466 9.57617C2.97578 8.0983 4.24153 7.00012 5.73438 7H7.00001V6C7.00001 3.23859 9.2386 1.00001 12 1C14.7614 1 17 3.23858 17 6V7Z" fill="#1F1F1F"/>
</svg>
