<svg width="24" height="24" viewBox="0 0 24 24" fill="none" xmlns="http://www.w3.org/2000/svg">
<path d="M17.4004 8.64062H6.59961V20C6.59961 20.5522 7.0475 20.9998 7.59961 21H16.4004C16.9525 20.9998 17.4004 20.5522 17.4004 20V8.64062ZM8.86621 18.9229V10.7178C8.86631 10.1657 9.3142 9.71802 9.86621 9.71777C10.4184 9.71777 10.8661 10.1656 10.8662 10.7178V18.9229C10.8662 19.4751 10.4185 19.9229 9.86621 19.9229C9.31414 19.9226 8.86621 19.475 8.86621 18.9229ZM13.1338 18.9229V10.7178C13.1339 10.1656 13.5816 9.71777 14.1338 9.71777C14.6858 9.71802 15.1337 10.1657 15.1338 10.7178V18.9229C15.1338 19.475 14.6859 19.9226 14.1338 19.9229C13.5815 19.9229 13.1338 19.4751 13.1338 18.9229ZM10.7998 3C10.404 3.00008 10.0634 3.2308 9.90137 3.56445H14.0986C13.9366 3.2308 13.596 3.00008 13.2002 3H10.7998ZM19 6.56445C19 6.01217 18.5523 5.56445 18 5.56445H6C5.44771 5.56445 5 6.01217 5 6.56445V6.64062H19V6.56445ZM21 7.64062C21 8.19291 20.5523 8.64062 20 8.64062H19.4004V20C19.4004 21.6567 18.0571 22.9998 16.4004 23H7.59961C5.94293 22.9998 4.59961 21.6567 4.59961 20V8.64062H4C3.44772 8.64062 3 8.19291 3 7.64062V6.56445C3 4.9076 4.34315 3.56445 6 3.56445H7.83203C8.04301 2.11412 9.291 1.0001 10.7998 1H13.2002C14.709 1.0001 15.957 2.11412 16.168 3.56445H18C19.6569 3.56445 21 4.9076 21 6.56445V7.64062Z" fill="#1F1F1F"/>
</svg>
