<svg width="24" height="24" viewBox="0 0 24 24" fill="none" xmlns="http://www.w3.org/2000/svg">
<path d="M10.7143 4.71429H7C5.89543 4.71429 5 5.60972 5 6.71429V17C5 18.1046 5.89543 19 7 19H17.2857C18.3903 19 19.2857 18.1046 19.2857 17V13.2857M19.2929 7.56425L13.6948 13.1623C12.7011 14.156 11.3534 14.7143 9.94805 14.7143V14.7143C9.58225 14.7143 9.28571 14.4177 9.28571 14.0519V14.0519C9.28571 12.6466 9.84397 11.2989 10.8377 10.3052L16.4358 4.70711C16.8263 4.31658 17.4594 4.31658 17.85 4.70711L19.2929 6.15004C19.6834 6.54056 19.6834 7.17373 19.2929 7.56425Z" stroke="#F5F5F5" stroke-width="2" stroke-linecap="round" stroke-linejoin="round"/>
</svg>
