<svg width="24" height="24" viewBox="0 0 24 24" fill="none" xmlns="http://www.w3.org/2000/svg">
<path fill-rule="evenodd" clip-rule="evenodd" d="M12.1248 1.55159C13.378 1.21582 14.6557 1.72782 15.3582 2.73323H16.4119C17.6984 2.73339 18.7923 3.54469 19.2185 4.68245L19.826 4.84554C21.4261 5.27444 22.3766 6.91917 21.948 8.51937L19.3465 18.2274C19.3191 18.3295 19.2857 18.4286 19.2488 18.5252C18.935 19.436 18.1896 20.1797 17.1892 20.4481L9.73904 22.4481C8.1382 22.8774 6.49183 21.9261 6.06326 20.325L2.55643 7.22054C2.12831 5.62058 3.07787 3.97568 4.67752 3.54671L12.1248 1.55159ZM13.867 4.19026C13.7238 3.65712 13.1756 3.34039 12.6424 3.48323L5.1951 5.47933C4.66227 5.62259 4.34542 6.17083 4.48807 6.70394L7.99588 19.8084C8.13889 20.3418 8.68704 20.6595 9.22049 20.5164L16.6707 18.5164C17.204 18.3734 17.5206 17.8252 17.3777 17.2918L13.867 4.19026ZM19.4119 10.2537L20.0154 8.00179C20.1488 7.50384 19.8819 6.99239 19.4119 6.81038V10.2537ZM17.4119 9.69026V5.73323C17.4119 5.18107 16.964 4.73343 16.4119 4.73323H16.0838L17.4119 9.69026Z" fill="#1F1F1F"/>
</svg>
