<svg width="24" height="24" viewBox="0 0 24 24" fill="none" xmlns="http://www.w3.org/2000/svg">
<path d="M19.0004 13.5002C19.0004 9.63431 15.8662 6.50038 12.0004 6.50018C8.13438 6.50018 5.00037 9.63418 5.00037 13.5002C5.00047 17.3661 8.13444 20.5002 12.0004 20.5002C15.8661 20.5 19.0003 17.366 19.0004 13.5002ZM5.41151 19.9748L5.66346 19.8898C5.60084 19.8277 5.54065 19.7633 5.47987 19.6994L5.41151 19.9748ZM18.5189 19.6994C18.4581 19.7633 18.398 19.8277 18.3353 19.8898L18.5883 19.9748L18.5189 19.6994ZM11.0004 9.50018C11.0004 8.94789 11.4481 8.50018 12.0004 8.50018C12.5525 8.50038 13.0004 8.94802 13.0004 9.50018V12.5002H15.0004C15.5525 12.5004 16.0004 12.948 16.0004 13.5002C16.0003 14.0523 15.5524 14.5 15.0004 14.5002H12.0004C11.4482 14.5002 11.0005 14.0524 11.0004 13.5002V9.50018ZM1.8324 6.57928C1.33693 3.60603 4.18376 1.17393 7.04334 2.12713L8.3158 2.55096C8.66334 2.66681 8.92043 2.96375 8.98475 3.3244C9.04905 3.68503 8.91044 4.05161 8.6244 4.28045L3.6244 8.28045C3.34743 8.50202 2.97423 8.56044 2.64295 8.43377C2.31161 8.30699 2.07237 8.01418 2.01405 7.66424L1.8324 6.57928ZM16.9564 2.12713C19.816 1.17393 22.6629 3.60602 22.1674 6.57928L21.9867 7.66424C21.9284 8.01403 21.6889 8.3069 21.3578 8.43377C21.0265 8.56056 20.6524 8.50207 20.3754 8.28045L15.3754 4.28045C15.0894 4.05159 14.9517 3.68498 15.016 3.3244C15.0803 2.96379 15.3365 2.6668 15.684 2.55096L16.9564 2.12713ZM5.87147 3.92108C4.86826 3.8704 3.97604 4.59554 3.80604 5.57342L5.87147 3.92108ZM13.5004 2.00018C14.0525 2.00038 14.5004 2.44802 14.5004 3.00018C14.5003 3.55225 14.0524 3.99998 13.5004 4.00018H10.5004C9.94815 4.00018 9.50047 3.55238 9.50037 3.00018C9.50037 2.44789 9.94809 2.00018 10.5004 2.00018H13.5004ZM21.0004 13.5002C21.0003 14.9536 20.6523 16.325 20.0404 17.5402L20.5287 19.4904C20.9112 21.0213 19.4525 22.3713 17.9555 21.8722L16.684 21.4484C16.5952 21.4188 16.5137 21.3773 16.4398 21.3273C15.1295 22.0722 13.6153 22.5001 12.0004 22.5002C10.3851 22.5002 8.87048 22.0714 7.55994 21.3264C7.48596 21.3764 7.40471 21.4188 7.3158 21.4484L6.04432 21.8722C4.54717 22.3713 3.08941 21.0214 3.47205 19.4904L3.95838 17.5412C3.34643 16.3259 3.0004 14.9537 3.00037 13.5002C3.00037 8.52962 7.02981 4.50018 12.0004 4.50018C16.9708 4.50038 21.0004 8.52974 21.0004 13.5002Z" fill="#1F1F1F"/>
</svg>
