<svg width="24" height="24" viewBox="0 0 24 24" fill="none" xmlns="http://www.w3.org/2000/svg">
<path d="M10.336 6.69337C11.1276 5.50594 12.8724 5.50594 13.6641 6.69337L15.7657 9.84571C16.0635 10.2924 16.6611 10.4244 17.1192 10.1445L19.5108 8.68262C21.0043 7.77014 22.8664 9.08098 22.5117 10.7949L21.3096 16.6074C21.0214 18.0005 19.7937 19 18.3711 19H5.62893C4.20635 19 2.97868 18.0005 2.69046 16.6074L1.48831 10.7949C1.1337 9.08098 2.9958 7.77014 4.48928 8.68262L6.88089 10.1445C7.339 10.4244 7.93656 10.2924 8.2344 9.84571L10.336 6.69337ZM9.89846 10.9551C9.00492 12.2953 7.21237 12.6905 5.83792 11.8506L3.44631 10.3897L4.64944 16.2022C4.74551 16.6665 5.15474 17 5.62893 17H18.3711C18.8453 17 19.2545 16.6665 19.3506 16.2022L20.5537 10.3897L18.1621 11.8506C16.7877 12.6905 14.9951 12.2953 14.1016 10.9551L12 7.80274L9.89846 10.9551Z" fill="#1F1F1F"/>
</svg>
