<svg width="24" height="24" viewBox="0 0 24 24" fill="none" xmlns="http://www.w3.org/2000/svg">
<path d="M12 6.99979C12.3324 6.99979 12.6572 7.0326 12.9713 7.09486C13.3615 7.17218 13.4356 7.69249 13.2445 8.04139C13.0887 8.32591 13 8.65246 13 8.99979C13 10.1044 13.8954 10.9998 15 10.9998C15.3474 10.9998 15.6737 10.9109 15.958 10.7548C16.3067 10.5634 16.8268 10.6371 16.9044 11.0272C16.9669 11.3417 17 11.6669 17 11.9998C17 14.7612 14.7614 16.9998 12 16.9998C9.23854 16.9998 6.99997 14.7612 6.99997 11.9998C7.00008 9.23846 9.23861 6.99979 12 6.99979Z" fill="#1F1F1F"/>
<path d="M11.4433 19.9893C5.77153 19.7628 2.69565 16.0952 1.49411 13.4854C1.05958 12.5414 1.05958 11.4586 1.49411 10.5146C2.73439 7.82065 5.97182 4 12 4C18.0281 4 21.2656 7.82065 22.5058 10.5146C22.9404 11.4586 22.9404 12.5414 22.5058 13.4854C21.2655 16.1794 18.0281 20 12 20L11.4433 19.9893ZM12.4638 17.9912C17.1897 17.8051 19.7035 14.79 20.6894 12.6484C20.8794 12.2355 20.8794 11.7645 20.6894 11.3516C19.6718 9.14094 17.0261 6 12 6C6.97382 6 4.32818 9.14093 3.31052 11.3516C3.12055 11.7645 3.12054 12.2355 3.31052 12.6484C4.32818 14.8591 6.97382 18 12 18L12.4638 17.9912Z" fill="#1F1F1F"/>
</svg>
