<svg width="24" height="24" viewBox="0 0 24 24" fill="none" xmlns="http://www.w3.org/2000/svg">
<path d="M20.6667 2C21.219 2 21.6667 2.44772 21.6667 3V21C21.6667 21.5523 21.219 22 20.6667 22H2.66675C2.11446 22 1.66675 21.5523 1.66675 21V3C1.66675 2.44772 2.11446 2 2.66675 2H20.6667ZM15.6667 20H19.6667V16H15.6667V20ZM9.66675 20H13.6667V16H9.66675V20ZM3.66675 20H7.66675V16H3.66675V20ZM15.6667 14H19.6667V10H15.6667V14ZM9.66675 14H13.6667V10H9.66675V14ZM3.66675 14H7.66675V10H3.66675V14ZM15.6667 8H19.6667V4H15.6667V8ZM9.66675 8H13.6667V4H9.66675V8ZM3.66675 8H7.66675V4H3.66675V8Z" fill="#1F1F1F"/>
</svg>
