<svg width="24" height="24" viewBox="0 0 24 24" fill="none" xmlns="http://www.w3.org/2000/svg">
<path d="M18 20V13C18 11.8954 18.8954 11 20 11H20.6201C20.8298 10.9998 20.9998 10.8298 21 10.6201C21 10.5115 20.9532 10.4081 20.8721 10.3359L13.083 3.41211C12.7846 3.14686 12.3993 3 12 3C11.6007 3 11.2154 3.14686 10.917 3.41211L3.12793 10.3359C3.04676 10.4081 3 10.5115 3 10.6201C3.00017 10.8298 3.17016 10.9998 3.37988 11H4C5.10457 11 6 11.8954 6 13V20C6 20.5523 6.44772 21 7 21H8.5V14.5C8.5 12.567 10.067 11 12 11C13.933 11 15.5 12.567 15.5 14.5V21H17C17.5523 21 18 20.5523 18 20ZM23 10.6201C22.9998 11.9344 21.9344 12.9998 20.6201 13H20V20C20 21.6569 18.6569 23 17 23H15.5C14.3954 23 13.5 22.1046 13.5 21V14.5C13.5 13.6716 12.8284 13 12 13C11.1716 13 10.5 13.6716 10.5 14.5V21C10.5 22.1046 9.60457 23 8.5 23H7C5.34315 23 4 21.6569 4 20V13H3.37988C2.06559 12.9998 1.00017 11.9344 1 10.6201C1 9.94026 1.2907 9.2925 1.79883 8.84082L9.58789 1.91699C10.2524 1.32631 11.1109 1 12 1C12.8891 1 13.7476 1.32631 14.4121 1.91699L22.2012 8.84082C22.7093 9.2925 23 9.94026 23 10.6201Z" fill="#1F1F1F"/>
</svg>
