<svg width="24" height="24" viewBox="0 0 24 24" fill="none" xmlns="http://www.w3.org/2000/svg">
<path d="M17.0261 7.61914C17.3784 7.23997 17.9568 7.19552 18.3611 7.50098L18.4392 7.56738L21.3474 10.2676C21.551 10.4568 21.6667 10.7221 21.6667 11C21.6667 11.2779 21.551 11.5432 21.3474 11.7324L18.4392 14.4326C18.0346 14.8083 17.4019 14.7853 17.0261 14.3809C16.6503 13.9761 16.6741 13.3426 17.0789 12.9668L18.1199 12H14.6667C14.1145 12 13.6667 11.5523 13.6667 11C13.6667 10.4477 14.1145 10 14.6667 10H18.1199L17.0789 9.0332L17.0066 8.95898C16.6723 8.57834 16.674 7.9984 17.0261 7.61914ZM16.7585 4.7002V4C16.7585 3.44772 16.3108 3 15.7585 3H9.18237L10.7205 3.57715C11.8911 4.0163 12.6666 5.13543 12.6667 6.38574V19H15.7585C16.3108 19 16.7585 18.5522 16.7585 18V17.2998C16.7587 16.7477 17.2065 16.3 17.7585 16.2998C18.3107 16.2999 18.7584 16.7477 18.7585 17.2998V18C18.7584 19.6567 17.4153 21 15.7585 21H12.5349C12.0473 22.5912 10.2828 23.549 8.61304 22.9229L4.61304 21.4229C3.44241 20.9837 2.66685 19.8646 2.66675 18.6143V4C2.66677 2.34325 4.01003 1.00013 5.66675 1H15.7585C17.4154 1 18.7585 2.34315 18.7585 4V4.7002C18.7584 5.25239 18.3108 5.7002 17.7585 5.7002C17.2065 5.70001 16.7587 5.25227 16.7585 4.7002ZM4.66675 18.6143C4.66685 19.0309 4.9251 19.4044 5.31519 19.5508L9.31519 21.0508C9.96885 21.2959 10.6666 20.8123 10.6667 20.1143V6.38574C10.6666 5.96908 10.4084 5.59562 10.0183 5.44922L7.31616 4.43652L7.85425 3H5.66675C5.11458 3.00013 4.66676 3.44781 4.66675 4V18.6143Z" fill="#1F1F1F"/>
<path d="M2.66675 18.6143V4.88574C2.66692 2.79126 4.75929 1.34171 6.72046 2.07715L10.7205 3.57715C11.8911 4.0163 12.6666 5.13543 12.6667 6.38574V20.1143C12.6666 22.2087 10.5742 23.6583 8.61304 22.9229L4.61304 21.4229C3.44241 20.9837 2.66685 19.8646 2.66675 18.6143ZM4.66675 18.6143C4.66685 19.0309 4.9251 19.4044 5.31519 19.5508L9.31519 21.0508C9.96885 21.2959 10.6666 20.8123 10.6667 20.1143V6.38574C10.6666 5.96908 10.4084 5.59562 10.0183 5.44922L6.01831 3.94922C5.36464 3.70409 4.66692 4.18768 4.66675 4.88574V18.6143Z" fill="#1F1F1F"/>
<path d="M7.66675 15V11C7.66675 10.4477 8.11446 10 8.66675 10C9.21903 10 9.66675 10.4477 9.66675 11V15C9.66675 15.5523 9.21903 16 8.66675 16C8.11446 16 7.66675 15.5523 7.66675 15Z" fill="#1F1F1F"/>
</svg>
