<svg width="24" height="24" viewBox="0 0 24 24" fill="none" xmlns="http://www.w3.org/2000/svg">
<path d="M21 7.08398L13.6875 12.0605C12.669 12.7536 11.331 12.7536 10.3125 12.0605L3 7.08398V17C3 17.5523 3.44772 18 4 18H20C20.5523 18 21 17.5523 21 17V7.08398ZM11.4375 10.4072C11.777 10.6383 12.223 10.6383 12.5625 10.4072L19.0381 6H4.96191L11.4375 10.4072ZM23 17C23 18.6569 21.6569 20 20 20H4C2.34315 20 1 18.6569 1 17V7C1 5.34315 2.34315 4 4 4H20C21.6569 4 23 5.34315 23 7V17Z" fill="#1F1F1F"/>
</svg>
