<svg width="24" height="24" viewBox="0 0 24 24" fill="none" xmlns="http://www.w3.org/2000/svg">
<path d="M12.414 8.65673C12.414 9.20902 12.8616 9.65663 13.4139 9.65663H19.0708C19.623 9.65663 20.0707 9.20902 20.0707 8.65673V2.99988C20.0707 2.44759 19.623 1.99998 19.0708 1.99998C18.5185 1.99998 18.0709 2.44759 18.0709 2.99988V7.65684H13.4139C12.8616 7.65684 12.414 8.10445 12.414 8.65673Z" fill="#1F1F1F"/>
<path d="M13.7558 21.7264C15.7978 21.3201 17.6361 20.2187 18.9569 18.6093C20.2779 16.9997 21.0002 14.9815 21.0002 12.8993C21.0002 12.3472 20.5524 11.8997 20.0003 11.8994C19.448 11.8994 19.0004 12.347 19.0004 12.8993C19.0004 14.5186 18.438 16.0876 17.4108 17.3394C16.3835 18.5912 14.9539 19.4486 13.3657 19.7646C11.7774 20.0805 10.1286 19.8359 8.70043 19.0726C7.27217 18.3092 6.1527 17.0741 5.53295 15.5778C4.91322 14.0817 4.83082 12.4168 5.30093 10.867C5.77103 9.31744 6.76434 7.97916 8.11071 7.07945C9.45726 6.17971 11.0745 5.77442 12.6862 5.93316C14.2978 6.09195 15.8045 6.80444 16.9495 7.94952C17.3401 8.34004 17.9732 8.34004 18.3638 7.94952C18.7543 7.559 18.7543 6.92583 18.3638 6.53531C16.8914 5.06297 14.9538 4.14644 12.8816 3.94235C10.8096 3.73836 8.73082 4.25922 6.99964 5.41595C5.26848 6.57268 3.99194 8.29392 3.38746 10.2863C2.78306 12.2787 2.88838 14.4193 3.68508 16.343C4.48188 18.2666 5.92091 19.8547 7.75716 20.8363C9.59349 21.8178 11.7136 22.1326 13.7558 21.7264Z" fill="#1F1F1F"/>
</svg>
