<svg width="24" height="24" viewBox="0 0 24 24" fill="none" xmlns="http://www.w3.org/2000/svg">
<path d="M13.293 7.29297C13.6835 6.90245 14.3165 6.90245 14.707 7.29297L18.707 11.293C18.8946 11.4805 19 11.7348 19 12C19 12.2652 18.8946 12.5195 18.707 12.707L14.707 16.707C14.3165 17.0976 13.6835 17.0976 13.293 16.707C12.9024 16.3165 12.9024 15.6835 13.293 15.293L15.5859 13H6C5.44772 13 5 12.5523 5 12C5 11.4477 5.44772 11 6 11H15.5859L13.293 8.70703C12.9024 8.31651 12.9024 7.68349 13.293 7.29297Z" fill="#1F1F1F"/>
</svg>
