<svg width="24" height="24" viewBox="0 0 24 24" fill="none" xmlns="http://www.w3.org/2000/svg">
<path d="M16 10.5C16 7.46243 13.5376 5 10.5 5C7.46243 5 5 7.46243 5 10.5C5 13.5376 7.46243 16 10.5 16C13.5376 16 16 13.5376 16 10.5ZM18 10.5C18 12.2322 17.41 13.8251 16.4238 15.0947C16.5263 15.1427 16.6224 15.2084 16.707 15.293L21.707 20.293C22.0976 20.6835 22.0976 21.3165 21.707 21.707C21.3165 22.0976 20.6835 22.0976 20.293 21.707L15.293 16.707C15.2084 16.6224 15.1427 16.5263 15.0947 16.4238C13.8251 17.41 12.2322 18 10.5 18C6.35786 18 3 14.6421 3 10.5C3 6.35786 6.35786 3 10.5 3C14.6421 3 18 6.35786 18 10.5Z" fill="#1F1F1F"/>
</svg>
