<svg width="24" height="24" viewBox="0 0 24 24" fill="none" xmlns="http://www.w3.org/2000/svg">
<path d="M12.363 1C13.6879 1.00008 14.8564 1.86976 15.237 3.13867L15.5574 4.20801L15.5896 4.30078C15.7741 4.75103 16.2623 5.00748 16.7449 4.89355H16.7458L17.8337 4.63672C19.1225 4.33244 20.4594 4.90909 21.1218 6.05664L21.6335 6.94336C22.296 8.09108 22.1261 9.53715 21.2175 10.501V10.502L20.4519 11.3135L20.4509 11.3125C20.0882 11.6974 20.0887 12.3001 20.4519 12.6855L21.2185 13.499C22.1272 14.4633 22.2956 15.9096 21.6335 17.0566L21.1218 17.9434C20.4592 19.0912 19.1218 19.667 17.8327 19.3623V19.3633L16.7458 19.1064H16.7449C16.2295 18.9847 15.7094 19.2847 15.5574 19.791L15.2361 20.8613C14.8556 22.1299 13.6883 22.9999 12.363 23H11.3386C10.0143 22.9998 8.84653 22.1314 8.46555 20.8633V20.8623L8.14426 19.791C7.99214 19.2848 7.47118 18.9836 6.95579 19.1055V19.1064L5.86985 19.3633V19.3623C4.58026 19.6675 3.24325 19.0906 2.58079 17.9434L2.06809 17.0557C1.40611 15.9086 1.57531 14.463 2.48313 13.499L3.24876 12.6846C3.61159 12.2992 3.6121 11.6983 3.24973 11.3135L2.48411 10.501C1.57613 9.5374 1.40551 8.09123 2.06809 6.94336L2.06907 6.94238L2.58176 6.05566C3.24395 4.90964 4.57973 4.33141 5.86887 4.63574L6.95579 4.89258C7.47098 5.0143 7.99204 4.71407 8.14426 4.20801L8.46555 3.13672C8.84654 1.86871 10.0141 1.00009 11.3386 1H12.363ZM11.3386 3C10.8974 3.00006 10.5086 3.28986 10.3816 3.71289L10.0603 4.78223C9.60373 6.30278 8.04104 7.2044 6.4968 6.83984L5.40989 6.58301C4.98059 6.48158 4.5342 6.67378 4.31321 7.05664L4.31223 7.05762L3.79954 7.94238C3.57914 8.3242 3.63589 8.80801 3.93919 9.12988L4.70481 9.94238C5.7932 11.0978 5.7932 12.9005 4.70579 14.0557L3.93919 14.8701H3.93821C3.6357 15.1915 3.58002 15.6735 3.80051 16.0557L4.31321 16.9434C4.53415 17.3258 4.97947 17.5185 5.40891 17.417V17.416L6.49485 17.1592C8.03964 16.7935 9.60367 17.6953 10.0603 19.2168L10.3816 20.2871L10.4411 20.4395C10.6067 20.7781 10.9525 20.9999 11.3386 21H12.363L12.5251 20.9863C12.8969 20.9252 13.2089 20.6577 13.32 20.2871L13.6413 19.2168C14.0977 17.6955 15.661 16.7939 17.2058 17.1592L18.2917 17.416L18.2927 17.417C18.7228 17.5187 19.1688 17.3255 19.3894 16.9434L19.9011 16.0566C20.122 15.674 20.066 15.1913 19.7634 14.8701L18.9968 14.0566C17.908 12.9012 17.9073 11.0971 18.9968 9.94141V9.94043L19.7624 9.12891C20.0654 8.80735 20.1217 8.32551 19.9011 7.94336L19.3894 7.05664C19.1688 6.6745 18.7228 6.48235 18.2927 6.58398L17.2048 6.83984C15.7563 7.18205 14.2932 6.411 13.74 5.06055L13.6413 4.78223L13.321 3.71289C13.21 3.34301 12.898 3.07512 12.5261 3.01367L12.363 3H11.3386ZM13.8513 12C13.8513 10.9645 13.0641 10.1131 12.0554 10.0107L11.8513 10C10.7467 10 9.8513 10.8954 9.8513 12C9.8513 13.1046 10.7467 14 11.8513 14L12.0554 13.9893C13.0641 13.8869 13.8513 13.0355 13.8513 12ZM15.8513 12C15.8513 14.2091 14.0602 15.9998 11.8513 16C9.64216 16 7.85129 14.2091 7.85129 12C7.85129 9.79086 9.64216 8 11.8513 8C14.0602 8.00019 15.8513 9.79086 15.8513 12Z" fill="#1F1F1F"/>
</svg>
