<svg width="24" height="24" viewBox="0 0 24 24" fill="none" xmlns="http://www.w3.org/2000/svg">
<path d="M5.00002 9V15M2 12H8" stroke="black" stroke-width="2" stroke-linecap="round" stroke-linejoin="round"/>
<path d="M8.2272 18.017C8.973 14.7769 11.5005 12 15 12C12.6804 12 10.8 10.2091 10.8 8C10.8 5.79086 12.6804 4 15 4C17.3196 4 19.2 5.79086 19.2 8C19.2 10.2091 17.3196 12 15 12C18.4995 12 21.027 14.7769 21.7728 18.017C22.0206 19.0934 21.1046 20 20 20H10C8.89543 20 7.97943 19.0934 8.2272 18.017Z" fill="#FDFBF5"/>
<path d="M15 12C11.5005 12 8.973 14.7769 8.2272 18.017C7.97943 19.0934 8.89543 20 10 20H20C21.1046 20 22.0206 19.0934 21.7728 18.017C21.027 14.7769 18.4995 12 15 12ZM15 12C12.6804 12 10.8 10.2091 10.8 8C10.8 5.79086 12.6804 4 15 4C17.3196 4 19.2 5.79086 19.2 8C19.2 10.2091 17.3196 12 15 12Z" stroke="#1F1F1F" stroke-width="2" stroke-linecap="round" stroke-linejoin="round"/>
</svg>
