<svg width="318" height="64" viewBox="0 0 318 64" fill="none" xmlns="http://www.w3.org/2000/svg">
<rect width="318" height="64" rx="32" fill="#C4C4C4"/>
<path d="M42.872 19.98C45.536 19.98 47.864 20.496 49.856 21.528C51.872 22.536 53.42 24 54.5 25.92C55.604 27.816 56.156 30.036 56.156 32.58C56.156 35.124 55.604 37.332 54.5 39.204C53.42 41.076 51.872 42.516 49.856 43.524C47.864 44.508 45.536 45 42.872 45H34.7V19.98H42.872ZM42.872 41.652C45.8 41.652 48.044 40.86 49.604 39.276C51.164 37.692 51.944 35.46 51.944 32.58C51.944 29.676 51.164 27.408 49.604 25.776C48.044 24.144 45.8 23.328 42.872 23.328H38.804V41.652H42.872ZM78.4034 34.596C78.4034 35.34 78.3554 36.012 78.2594 36.612H63.1034C63.2234 38.196 63.8114 39.468 64.8674 40.428C65.9234 41.388 67.2194 41.868 68.7554 41.868C70.9634 41.868 72.5234 40.944 73.4354 39.096H77.8634C77.2634 40.92 76.1714 42.42 74.5874 43.596C73.0274 44.748 71.0834 45.324 68.7554 45.324C66.8594 45.324 65.1554 44.904 63.6434 44.064C62.1554 43.2 60.9794 42 60.1154 40.464C59.2754 38.904 58.8554 37.104 58.8554 35.064C58.8554 33.024 59.2634 31.236 60.0794 29.7C60.9194 28.14 62.0834 26.94 63.5714 26.1C65.0834 25.26 66.8114 24.84 68.7554 24.84C70.6274 24.84 72.2954 25.248 73.7594 26.064C75.2234 26.88 76.3634 28.032 77.1794 29.52C77.9954 30.984 78.4034 32.676 78.4034 34.596ZM74.1194 33.3C74.0954 31.788 73.5554 30.576 72.4994 29.664C71.4434 28.752 70.1354 28.296 68.5754 28.296C67.1594 28.296 65.9474 28.752 64.9394 29.664C63.9314 30.552 63.3314 31.764 63.1394 33.3H74.1194ZM90.7582 28.512H87.0862V45H82.9462V28.512H80.6062V25.164H82.9462V23.76C82.9462 21.48 83.5462 19.824 84.7462 18.792C85.9702 17.736 87.8782 17.208 90.4702 17.208V20.628C89.2222 20.628 88.3462 20.868 87.8422 21.348C87.3382 21.804 87.0862 22.608 87.0862 23.76V25.164H90.7582V28.512ZM93.0273 34.992C93.0273 33 93.4353 31.236 94.2513 29.7C95.0913 28.164 96.2193 26.976 97.6353 26.136C99.0753 25.272 100.659 24.84 102.387 24.84C103.947 24.84 105.303 25.152 106.455 25.776C107.631 26.376 108.567 27.132 109.263 28.044V25.164H113.403V45H109.263V42.048C108.567 42.984 107.619 43.764 106.419 44.388C105.219 45.012 103.851 45.324 102.315 45.324C100.611 45.324 99.0513 44.892 97.6353 44.028C96.2193 43.14 95.0913 41.916 94.2513 40.356C93.4353 38.772 93.0273 36.984 93.0273 34.992ZM109.263 35.064C109.263 33.696 108.975 32.508 108.399 31.5C107.847 30.492 107.115 29.724 106.203 29.196C105.291 28.668 104.307 28.404 103.251 28.404C102.195 28.404 101.211 28.668 100.299 29.196C99.3873 29.7 98.6433 30.456 98.0673 31.464C97.5153 32.448 97.2393 33.624 97.2393 34.992C97.2393 36.36 97.5153 37.56 98.0673 38.592C98.6433 39.624 99.3873 40.416 100.299 40.968C101.235 41.496 102.219 41.76 103.251 41.76C104.307 41.76 105.291 41.496 106.203 40.968C107.115 40.44 107.847 39.672 108.399 38.664C108.975 37.632 109.263 36.432 109.263 35.064ZM136.758 25.164V45H132.654V42.66C132.006 43.476 131.154 44.124 130.098 44.604C129.066 45.06 127.962 45.288 126.786 45.288C125.226 45.288 123.822 44.964 122.574 44.316C121.35 43.668 120.378 42.708 119.658 41.436C118.962 40.164 118.614 38.628 118.614 36.828V25.164H122.682V36.216C122.682 37.992 123.126 39.36 124.014 40.32C124.902 41.256 126.114 41.724 127.65 41.724C129.186 41.724 130.398 41.256 131.286 40.32C132.198 39.36 132.654 37.992 132.654 36.216V25.164H136.758ZM146.277 18.36V45H142.173V18.36H146.277ZM156.453 28.512V39.492C156.453 40.236 156.621 40.776 156.957 41.112C157.317 41.424 157.917 41.58 158.757 41.58H161.277V45H158.037C156.189 45 154.773 44.568 153.789 43.704C152.805 42.84 152.313 41.436 152.313 39.492V28.512H149.973V25.164H152.313V20.232H156.453V25.164H161.277V28.512H156.453ZM182.655 45.252C180.975 45.252 179.463 44.964 178.119 44.388C176.775 43.788 175.719 42.948 174.951 41.868C174.183 40.788 173.799 39.528 173.799 38.088H178.191C178.287 39.168 178.707 40.056 179.451 40.752C180.219 41.448 181.287 41.796 182.655 41.796C184.071 41.796 185.175 41.46 185.967 40.788C186.759 40.092 187.155 39.204 187.155 38.124C187.155 37.284 186.903 36.6 186.399 36.072C185.919 35.544 185.307 35.136 184.563 34.848C183.843 34.56 182.835 34.248 181.539 33.912C179.907 33.48 178.575 33.048 177.543 32.616C176.535 32.16 175.671 31.464 174.951 30.528C174.231 29.592 173.871 28.344 173.871 26.784C173.871 25.344 174.231 24.084 174.951 23.004C175.671 21.924 176.679 21.096 177.975 20.52C179.271 19.944 180.771 19.656 182.475 19.656C184.899 19.656 186.879 20.268 188.415 21.492C189.975 22.692 190.839 24.348 191.007 26.46H186.471C186.399 25.548 185.967 24.768 185.175 24.12C184.383 23.472 183.339 23.148 182.043 23.148C180.867 23.148 179.907 23.448 179.163 24.048C178.419 24.648 178.047 25.512 178.047 26.64C178.047 27.408 178.275 28.044 178.731 28.548C179.211 29.028 179.811 29.412 180.531 29.7C181.251 29.988 182.235 30.3 183.483 30.636C185.139 31.092 186.483 31.548 187.515 32.004C188.571 32.46 189.459 33.168 190.179 34.128C190.923 35.064 191.295 36.324 191.295 37.908C191.295 39.18 190.947 40.38 190.251 41.508C189.579 42.636 188.583 43.548 187.263 44.244C185.967 44.916 184.431 45.252 182.655 45.252ZM200.926 28.512V39.492C200.926 40.236 201.094 40.776 201.43 41.112C201.79 41.424 202.39 41.58 203.23 41.58H205.75V45H202.51C200.662 45 199.246 44.568 198.262 43.704C197.278 42.84 196.786 41.436 196.786 39.492V28.512H194.446V25.164H196.786V20.232H200.926V25.164H205.75V28.512H200.926ZM213.636 28.044C214.236 27.036 215.028 26.256 216.012 25.704C217.02 25.128 218.208 24.84 219.576 24.84V29.088H218.532C216.924 29.088 215.7 29.496 214.86 30.312C214.044 31.128 213.636 32.544 213.636 34.56V45H209.532V25.164H213.636V28.044ZM231.952 45.324C230.08 45.324 228.388 44.904 226.876 44.064C225.364 43.2 224.176 42 223.312 40.464C222.448 38.904 222.016 37.104 222.016 35.064C222.016 33.048 222.46 31.26 223.348 29.7C224.236 28.14 225.448 26.94 226.984 26.1C228.52 25.26 230.236 24.84 232.132 24.84C234.028 24.84 235.744 25.26 237.28 26.1C238.816 26.94 240.028 28.14 240.916 29.7C241.804 31.26 242.248 33.048 242.248 35.064C242.248 37.08 241.792 38.868 240.88 40.428C239.968 41.988 238.72 43.2 237.136 44.064C235.576 44.904 233.848 45.324 231.952 45.324ZM231.952 41.76C233.008 41.76 233.992 41.508 234.904 41.004C235.84 40.5 236.596 39.744 237.172 38.736C237.748 37.728 238.036 36.504 238.036 35.064C238.036 33.624 237.76 32.412 237.208 31.428C236.656 30.42 235.924 29.664 235.012 29.16C234.1 28.656 233.116 28.404 232.06 28.404C231.004 28.404 230.02 28.656 229.108 29.16C228.22 29.664 227.512 30.42 226.984 31.428C226.456 32.412 226.192 33.624 226.192 35.064C226.192 37.2 226.732 38.856 227.812 40.032C228.916 41.184 230.296 41.76 231.952 41.76ZM254.153 35.1L263.297 45H257.753L250.409 36.468V45H246.305V18.36H250.409V33.84L257.609 25.164H263.297L254.153 35.1ZM284.419 34.596C284.419 35.34 284.371 36.012 284.275 36.612H269.119C269.239 38.196 269.827 39.468 270.883 40.428C271.939 41.388 273.235 41.868 274.771 41.868C276.979 41.868 278.539 40.944 279.451 39.096H283.879C283.279 40.92 282.187 42.42 280.603 43.596C279.043 44.748 277.099 45.324 274.771 45.324C272.875 45.324 271.171 44.904 269.659 44.064C268.171 43.2 266.995 42 266.131 40.464C265.291 38.904 264.871 37.104 264.871 35.064C264.871 33.024 265.279 31.236 266.095 29.7C266.935 28.14 268.099 26.94 269.587 26.1C271.099 25.26 272.827 24.84 274.771 24.84C276.643 24.84 278.311 25.248 279.775 26.064C281.239 26.88 282.379 28.032 283.195 29.52C284.011 30.984 284.419 32.676 284.419 34.596ZM280.135 33.3C280.111 31.788 279.571 30.576 278.515 29.664C277.459 28.752 276.151 28.296 274.591 28.296C273.175 28.296 271.963 28.752 270.955 29.664C269.947 30.552 269.347 31.764 269.155 33.3H280.135Z" fill="#5E5E5E"/>
</svg>
