<svg width="24" height="24" viewBox="0 0 24 24" fill="none" xmlns="http://www.w3.org/2000/svg">
<path d="M11.9333 5.83561L9.3281 15.5448C9.04172 16.6122 9.67521 17.7094 10.7427 17.9951L15.9312 19.3837C16.998 19.6692 18.0943 19.0361 18.3801 17.9694L20.9815 8.2608C21.2674 7.19387 20.6343 6.0972 19.5673 5.81132L14.3826 4.42206C13.3159 4.13625 12.2194 4.76904 11.9333 5.83561Z" fill="#FDFBF5" stroke="#1F1F1F" stroke-width="2"/>
<path d="M7.87334 5.73237L7.86928 17.5417C7.8689 18.6468 8.76481 19.5427 9.86988 19.5424L16.4125 19.5404C17.5168 19.5401 18.4119 18.6448 18.4119 17.5404V5.73306C18.4119 4.62849 17.5164 3.73306 16.4119 3.73306H9.87334C8.76904 3.73306 7.87372 4.62807 7.87334 5.73237Z" fill="#FDFBF5" stroke="#1F1F1F" stroke-width="2"/>
<path d="M3.52264 6.96181L7.02926 20.0667C7.3149 21.1343 8.41217 21.7678 9.4795 21.4815L16.9301 19.4827C17.9967 19.1966 18.6296 18.1001 18.3438 17.0334L14.8332 3.93186C14.5473 2.86493 13.4507 2.23176 12.3837 2.51765L4.93703 4.51299C3.87035 4.7988 3.23719 5.89504 3.52264 6.96181Z" fill="#FDFBF5" stroke="#1F1F1F" stroke-width="2"/>
<path d="M10.0211 7.93741C10.7546 7.80112 11.4162 7.84549 12.0005 8.07901H12.0015C12.5887 8.30391 13.0254 8.69921 13.3043 9.26065L13.3345 9.34756C13.3737 9.52155 13.2788 9.69206 13.1255 9.76846L13.0455 9.79874L11.7388 10.1239C11.5582 10.1689 11.3959 10.0815 11.2955 9.96475L11.2564 9.91397C11.1734 9.78964 11.0508 9.69094 10.8795 9.62198L10.8746 9.62003C10.6735 9.53052 10.4328 9.50694 10.1461 9.55948L10.0201 9.58585C9.72364 9.65963 9.52252 9.78572 9.39801 9.95108C9.28977 10.1031 9.26006 10.2959 9.33356 10.5507L9.3775 10.6669C9.43037 10.7732 9.51004 10.855 9.61676 10.9169C9.78398 11.0007 9.97568 11.0602 10.1939 11.0927L10.6148 11.1249C10.7783 11.134 10.9647 11.1416 11.1744 11.1474L11.5875 11.162C11.9838 11.181 12.3272 11.2135 12.6168 11.2607L12.7652 11.289C13.109 11.3654 13.4312 11.5101 13.731 11.7216L13.8609 11.8232C14.1503 12.0726 14.3551 12.4192 14.48 12.8524L14.5211 13.0146C14.5905 13.3397 14.5867 13.6652 14.5103 13.9892L14.4654 14.1513C14.3299 14.5862 14.0612 14.9709 13.6675 15.3046L13.6656 15.3056C13.3166 15.593 12.8824 15.8119 12.3668 15.9648L12.1402 16.0263C11.5561 16.1716 10.9969 16.2107 10.4644 16.1415H10.4634C10.0032 16.079 9.59495 15.9335 9.24176 15.703L9.09332 15.5985C8.8164 15.3893 8.5991 15.1292 8.44293 14.8192L8.37946 14.6825C8.28261 14.4556 8.42985 14.221 8.64703 14.1669L9.92633 13.8485L10.0015 13.8368C10.1741 13.8271 10.3265 13.9324 10.4039 14.0692L10.4849 14.1913C10.5721 14.3045 10.6791 14.3919 10.8072 14.455L10.8961 14.4911C11.1101 14.5661 11.3669 14.5713 11.6734 14.495L11.8033 14.4589C12.0937 14.3683 12.2939 14.2377 12.4185 14.0761C12.5395 13.9106 12.5811 13.735 12.5455 13.5399L12.5259 13.455C12.4849 13.3127 12.4163 13.202 12.3199 13.119L12.2144 13.0458C12.0457 12.9499 11.8474 12.8888 11.6168 12.8671H11.6109C11.3766 12.8357 11.0524 12.8167 10.6363 12.8124H10.6343C10.0599 12.7995 9.58047 12.7661 9.19781 12.7108L9.19391 12.7099C8.80264 12.6427 8.43612 12.4915 8.09625 12.2577L8.09332 12.2558C7.78655 12.0321 7.56174 11.708 7.41364 11.2948L7.35504 11.1132C7.21784 10.6375 7.22456 10.1831 7.38239 9.75674L7.44781 9.60049C7.58967 9.2944 7.80353 9.02452 8.08551 8.78995L8.23199 8.67471C8.63461 8.3717 9.12619 8.15 9.70172 8.00674L10.0211 7.93741Z" fill="#1F1F1F" stroke="#1F1F1F" stroke-width="0.3"/>
</svg>
