<svg width="24" height="24" viewBox="0 0 24 24" fill="none" xmlns="http://www.w3.org/2000/svg">
<path d="M20 7.64102H14.1333H9.86667H4M20 7.64102V6.56409C20 5.45952 19.1046 4.56409 18 4.56409H15.2M20 7.64102H18.4V20C18.4 21.1046 17.5046 22 16.4 22H14.1333H9.86667H7.6C6.49543 22 5.6 21.1046 5.6 20V7.64102H4M4 7.64102V6.56409C4 5.45952 4.89543 4.56409 6 4.56409H8.8M8.8 4.56409V4C8.8 2.89543 9.69543 2 10.8 2H13.2C14.3046 2 15.2 2.89543 15.2 4V4.56409M8.8 4.56409H15.2M14.1333 10.718V18.9231M9.86667 10.718V18.9231" stroke="#1F1F1F" stroke-width="2" stroke-linecap="round" stroke-linejoin="round"/>
</svg>
