<svg width="24" height="24" viewBox="0 0 24 24" fill="none" xmlns="http://www.w3.org/2000/svg">
<path d="M12 6.99979C12.3325 6.99979 12.6572 7.03259 12.9714 7.09485C13.3616 7.17217 13.4356 7.69249 13.2445 8.04138C13.0887 8.3259 13 8.65245 13 8.99979C13 10.1044 13.8954 10.9998 15 10.9998C15.3475 10.9998 15.6738 10.9109 15.958 10.7548C16.3067 10.5633 16.8268 10.6371 16.9044 11.0272C16.967 11.3417 17 11.6669 17 11.9998C17 14.7612 14.7614 16.9998 12 16.9998C9.23858 16.9998 7 14.7612 7 11.9998C7.00011 9.23846 9.23864 6.99979 12 6.99979Z" fill="#1F1F1F"/>
<path fill-rule="evenodd" clip-rule="evenodd" d="M12 19C17.5272 19 20.4688 15.5193 21.5978 13.067C21.9101 12.3885 21.9101 11.6115 21.5978 10.933C20.4688 8.48068 17.5272 5 12 5C6.47275 5 3.53116 8.48068 2.40223 10.933C2.08988 11.6115 2.08988 12.3885 2.40223 13.067C3.53116 15.5193 6.47275 19 12 19Z" stroke="#1F1F1F" stroke-width="2" stroke-linecap="round"/>
</svg>
