<svg width="24" height="24" viewBox="0 0 24 24" fill="none" xmlns="http://www.w3.org/2000/svg">
<path d="M10.9669 5.57648C11.3962 3.9768 13.0409 3.02801 14.6408 3.45636L15.4132 3.66339C15.4127 3.68644 15.4123 3.70955 15.4123 3.73273V19.5394C15.4123 19.8049 15.45 20.0618 15.5148 20.3069L10.4845 18.9612C8.88334 18.5327 7.93297 16.8864 8.36245 15.2855L10.9669 5.57648Z" fill="#1F1F1F"/>
<path d="M21.4123 5.89972C21.9706 6.61628 22.2006 7.57481 21.9474 8.51983L21.4123 10.5169V5.89972Z" fill="#1F1F1F"/>
<path d="M11.4178 2.77695L15.9637 19.7418C16.0412 20.031 16.1598 20.2982 16.3094 20.5406L9.87089 20.5426C8.21339 20.5431 6.86952 19.1991 6.86992 17.5416L6.87382 5.73203C6.87443 4.07561 8.21739 2.73301 9.87382 2.73301H11.407C11.4107 2.74747 11.4139 2.7625 11.4178 2.77695Z" fill="#1F1F1F"/>
<path d="M17.6961 3.025C18.7095 3.50653 19.4119 4.53639 19.4119 5.73301V9.42637L17.6961 3.025Z" fill="#1F1F1F"/>
<path d="M19.3097 16.7743C19.7384 18.3743 18.7892 20.019 17.1893 20.4483L9.73906 22.4476C8.13806 22.8771 6.49185 21.926 6.06338 20.3247L2.55616 7.22048C2.12803 5.62048 3.078 3.9761 4.67773 3.54719L12.125 1.55171C13.7254 1.12294 15.3704 2.07266 15.7992 3.67303L19.3097 16.7743Z" fill="#1F1F1F"/>
</svg>
