<svg width="24" height="24" viewBox="0 0 24 24" fill="none" xmlns="http://www.w3.org/2000/svg">
<path d="M22.8213 5.9873C22.935 6.30398 23 6.6442 23 7V17C23 18.6569 21.6569 20 20 20H4C2.34315 20 1 18.6569 1 17V7C1 6.64432 1.06412 6.30389 1.17773 5.9873L10.3359 12.0928C11.3436 12.7644 12.6564 12.7644 13.6641 12.0928L22.8213 5.9873Z" fill="#1F1F1F"/>
<path d="M20 4C20.5667 4 21.0947 4.16049 21.5469 4.43359L12.5547 10.4287C12.2189 10.6525 11.7811 10.6525 11.4453 10.4287L2.45215 4.43359C2.90443 4.16023 3.43297 4 4 4H20Z" fill="#1F1F1F"/>
</svg>
