<svg width="2377" height="512" viewBox="0 0 2377 512" fill="none" xmlns="http://www.w3.org/2000/svg">
<path d="M232.865 132.34L180.993 325.662C175.291 346.913 187.905 368.762 209.16 374.45L312.469 402.099C333.71 407.784 355.539 395.176 361.23 373.937L413.027 180.629C418.719 159.385 406.112 137.549 384.868 131.857L281.634 104.195C260.395 98.5042 238.563 111.104 232.865 132.34Z" fill="#FDFBF5" stroke="#1F1F1F" stroke-width="39.8222"/>
<path d="M150.13 131.205L150.049 366.342C150.042 388.345 167.88 406.184 189.884 406.178L320.154 406.139C342.142 406.132 359.964 388.305 359.964 366.317V131.219C359.964 109.226 342.135 91.3967 320.142 91.3967H189.953C167.965 91.3967 150.138 109.217 150.13 131.205Z" fill="#FDFBF5" stroke="#1F1F1F" stroke-width="39.8222"/>
<path d="M61.6064 158.528L131.427 419.462C137.115 440.717 158.962 453.332 180.214 447.631L328.564 407.833C349.802 402.135 362.403 380.303 356.712 359.064L286.813 98.1985C281.121 76.9547 259.285 64.3477 238.041 70.04L89.7685 109.769C68.5299 115.46 55.9229 137.288 61.6064 158.528Z" fill="#FDFBF5" stroke="#1F1F1F" stroke-width="39.8222"/>
<path d="M184.634 179.341C201.825 175.062 217.162 175.448 230.478 180.788L230.477 180.788C242.149 185.269 250.817 193.142 256.364 204.31C258.634 208.882 255.731 213.889 251.209 215.015L225.2 221.489C221.093 222.511 217.467 220.098 215.6 217.302C213.946 214.826 211.499 212.873 208.086 211.5L208.036 211.479L207.987 211.458C203.41 209.421 197.809 209.084 190.981 210.784C185.097 212.248 181.105 214.733 178.624 218.01C176.446 221.044 175.834 224.892 177.304 229.988C178.25 233.267 180.114 235.652 182.972 237.3C186.311 238.97 190.144 240.142 194.503 240.786C199.182 241.274 205.654 241.636 213.952 241.865C225.406 242.123 234.995 242.868 242.68 244.12C250.645 245.417 258.052 248.493 264.875 253.308C272.018 258.349 276.933 265.954 279.778 275.815C282.267 284.445 282.172 293.093 279.496 301.684C276.799 310.344 271.442 317.99 263.603 324.634L263.587 324.648L263.571 324.662C255.628 331.204 245.463 335.953 233.201 339.005C221.567 341.901 210.435 342.688 199.83 341.31L199.823 341.309L199.814 341.307C189.334 339.884 180.208 336.302 172.527 330.5C166.222 325.737 161.481 319.641 158.322 312.263C156.385 307.741 159.314 303.068 163.642 301.991L189.116 295.65C193.15 294.646 196.862 296.93 198.621 300.045C200.585 303.523 203.255 306.057 206.661 307.732C211.257 309.879 216.926 310.267 223.892 308.533C231.078 306.744 235.859 303.876 238.698 300.213C241.475 296.436 242.194 292.398 240.87 287.811C239.782 284.037 237.715 281.394 234.665 279.66C231.305 277.749 227.359 276.548 222.765 276.117L222.706 276.112L222.648 276.104C217.983 275.48 211.534 275.114 203.248 275.028L203.23 275.028L203.212 275.027C191.77 274.769 182.222 274.097 174.601 272.997L174.523 272.985C166.732 271.648 159.444 268.634 152.677 263.979L152.643 263.956L152.61 263.931C145.631 258.842 140.791 251.15 137.914 241.177C135.183 231.706 135.321 222.67 138.463 214.18C141.591 205.732 147.285 198.557 155.376 192.642C163.394 186.607 173.173 182.194 184.634 179.341Z" fill="#1F1F1F" stroke="#1F1F1F" stroke-width="5.97333"/>
<g clip-path="url(#clip0_818_64)">
<path d="M583.68 377.389C567.068 377.389 552.05 374.545 538.624 368.856C525.426 363.167 514.958 354.975 507.221 344.28C499.484 333.585 495.502 320.956 495.275 306.392H546.475C547.157 316.177 550.571 323.914 556.715 329.603C563.086 335.292 571.733 338.136 582.656 338.136C593.806 338.136 602.567 335.519 608.939 330.285C615.31 324.824 618.496 317.77 618.496 309.123C618.496 302.068 616.334 296.266 612.011 291.715C607.687 287.164 602.226 283.636 595.627 281.133C589.255 278.403 580.38 275.444 569.003 272.259C553.529 267.708 540.899 263.27 531.115 258.947C521.557 254.396 513.251 247.683 506.197 238.808C499.371 229.706 495.957 217.645 495.957 202.627C495.957 188.518 499.484 176.23 506.539 165.763C513.593 155.295 523.491 147.331 536.235 141.869C548.978 136.18 563.541 133.336 579.925 133.336C604.501 133.336 624.412 139.366 639.659 151.427C655.132 163.26 663.666 179.871 665.259 201.261H612.693C612.238 193.069 608.711 186.356 602.112 181.123C595.74 175.661 587.207 172.931 576.512 172.931C567.182 172.931 559.673 175.32 553.984 180.099C548.523 184.877 545.792 191.818 545.792 200.92C545.792 207.292 547.84 212.639 551.936 216.963C556.259 221.059 561.493 224.472 567.637 227.203C574.009 229.706 582.883 232.664 594.261 236.077C609.735 240.628 622.364 245.18 632.149 249.731C641.934 254.282 650.354 261.108 657.408 270.211C664.462 279.313 667.989 291.26 667.989 306.051C667.989 318.794 664.69 330.627 658.091 341.549C651.491 352.472 641.82 361.233 629.077 367.832C616.334 374.204 601.202 377.389 583.68 377.389ZM793.387 378.072C775.182 378.072 758.798 374.09 744.235 366.125C729.671 357.933 718.179 346.442 709.76 331.651C701.568 316.86 697.472 299.793 697.472 280.451C697.472 261.108 701.682 244.042 710.101 229.251C718.748 214.46 730.467 203.082 745.259 195.117C760.05 186.925 776.547 182.829 794.752 182.829C812.956 182.829 829.454 186.925 844.245 195.117C859.036 203.082 870.642 214.46 879.061 229.251C887.708 244.042 892.032 261.108 892.032 280.451C892.032 299.793 887.595 316.86 878.72 331.651C870.073 346.442 858.24 357.933 843.221 366.125C828.43 374.09 811.819 378.072 793.387 378.072ZM793.387 336.429C802.034 336.429 810.112 334.381 817.621 330.285C825.358 325.962 831.502 319.59 836.053 311.171C840.604 302.751 842.88 292.511 842.88 280.451C842.88 262.474 838.101 248.707 828.544 239.149C819.214 229.364 807.723 224.472 794.069 224.472C780.416 224.472 768.924 229.364 759.595 239.149C750.492 248.707 745.941 262.474 745.941 280.451C745.941 298.428 750.379 312.308 759.253 322.093C768.355 331.651 779.733 336.429 793.387 336.429ZM914.797 280.451C914.797 260.881 918.779 243.814 926.744 229.251C934.708 214.46 945.745 203.082 959.853 195.117C973.962 186.925 990.118 182.829 1008.32 182.829C1031.76 182.829 1051.1 188.746 1066.35 200.579C1081.82 212.184 1092.18 228.568 1097.41 249.731H1045.87C1043.14 241.539 1038.47 235.167 1031.87 230.616C1025.5 225.837 1017.54 223.448 1007.98 223.448C994.328 223.448 983.519 228.454 975.555 238.467C967.59 248.252 963.608 262.246 963.608 280.451C963.608 298.428 967.59 312.422 975.555 322.435C983.519 332.22 994.328 337.112 1007.98 337.112C1027.32 337.112 1039.95 328.465 1045.87 311.171H1097.41C1092.18 331.651 1081.82 347.921 1066.35 359.981C1050.88 372.042 1031.53 378.072 1008.32 378.072C990.118 378.072 973.962 374.09 959.853 366.125C945.745 357.933 934.708 346.556 926.744 331.992C918.779 317.201 914.797 300.02 914.797 280.451ZM1156.65 163.373C1148.23 163.373 1141.18 160.756 1135.49 155.523C1130.03 150.061 1127.3 143.348 1127.3 135.384C1127.3 127.42 1130.03 120.82 1135.49 115.587C1141.18 110.125 1148.23 107.395 1156.65 107.395C1165.07 107.395 1172.01 110.125 1177.47 115.587C1183.16 120.82 1186.01 127.42 1186.01 135.384C1186.01 143.348 1183.16 150.061 1177.47 155.523C1172.01 160.756 1165.07 163.373 1156.65 163.373ZM1180.21 185.901V375H1132.42V185.901H1180.21ZM1215.13 279.768C1215.13 260.653 1218.89 243.7 1226.39 228.909C1234.13 214.118 1244.49 202.74 1257.46 194.776C1270.65 186.812 1285.33 182.829 1301.49 182.829C1315.6 182.829 1327.88 185.674 1338.35 191.363C1349.05 197.052 1357.58 204.22 1363.95 212.867V185.901H1412.08V375H1363.95V347.352C1357.81 356.227 1349.27 363.622 1338.35 369.539C1327.66 375.228 1315.25 378.072 1301.15 378.072C1285.22 378.072 1270.65 373.976 1257.46 365.784C1244.49 357.592 1234.13 346.1 1226.39 331.309C1218.89 316.291 1215.13 299.11 1215.13 279.768ZM1363.95 280.451C1363.95 268.845 1361.68 258.947 1357.13 250.755C1352.57 242.335 1346.43 235.964 1338.69 231.64C1330.96 227.089 1322.65 224.813 1313.78 224.813C1304.9 224.813 1296.71 226.975 1289.2 231.299C1281.69 235.622 1275.55 241.994 1270.77 250.413C1266.22 258.605 1263.94 268.39 1263.94 279.768C1263.94 291.146 1266.22 301.158 1270.77 309.805C1275.55 318.225 1281.69 324.71 1289.2 329.261C1296.94 333.812 1305.13 336.088 1313.78 336.088C1322.65 336.088 1330.96 333.926 1338.69 329.603C1346.43 325.052 1352.57 318.68 1357.13 310.488C1361.68 302.068 1363.95 292.056 1363.95 280.451ZM1506.54 122.413V375H1458.75V122.413H1506.54ZM1541.46 279.768C1541.46 260.653 1545.22 243.7 1552.73 228.909C1560.46 214.118 1570.93 202.74 1584.13 194.776C1597.33 186.812 1612.01 182.829 1628.16 182.829C1640.45 182.829 1652.17 185.56 1663.32 191.021C1674.47 196.255 1683.34 203.309 1689.94 212.184V122.413H1738.41V375H1689.94V347.011C1684.03 356.34 1675.72 363.85 1665.03 369.539C1654.33 375.228 1641.93 378.072 1627.82 378.072C1611.89 378.072 1597.33 373.976 1584.13 365.784C1570.93 357.592 1560.46 346.1 1552.73 331.309C1545.22 316.291 1541.46 299.11 1541.46 279.768ZM1690.29 280.451C1690.29 268.845 1688.01 258.947 1683.46 250.755C1678.91 242.335 1672.76 235.964 1665.03 231.64C1657.29 227.089 1648.98 224.813 1640.11 224.813C1631.23 224.813 1623.04 226.975 1615.53 231.299C1608.02 235.622 1601.88 241.994 1597.1 250.413C1592.55 258.605 1590.27 268.39 1590.27 279.768C1590.27 291.146 1592.55 301.158 1597.1 309.805C1601.88 318.225 1608.02 324.71 1615.53 329.261C1623.27 333.812 1631.46 336.088 1640.11 336.088C1648.98 336.088 1657.29 333.926 1665.03 329.603C1672.76 325.052 1678.91 318.68 1683.46 310.488C1688.01 302.068 1690.29 292.056 1690.29 280.451ZM1960.87 276.355C1960.87 283.181 1960.42 289.325 1959.51 294.787H1821.27C1822.4 308.44 1827.18 319.135 1835.6 326.872C1844.02 334.609 1854.38 338.477 1866.66 338.477C1884.41 338.477 1897.04 330.854 1904.55 315.608H1956.09C1950.63 333.812 1940.16 348.831 1924.69 360.664C1909.22 372.269 1890.22 378.072 1867.69 378.072C1849.48 378.072 1833.1 374.09 1818.54 366.125C1804.2 357.933 1792.94 346.442 1784.74 331.651C1776.78 316.86 1772.8 299.793 1772.8 280.451C1772.8 260.881 1776.78 243.7 1784.74 228.909C1792.71 214.118 1803.86 202.74 1818.19 194.776C1832.53 186.812 1849.03 182.829 1867.69 182.829C1885.66 182.829 1901.71 186.698 1915.82 194.435C1930.15 202.172 1941.19 213.208 1948.93 227.544C1956.89 241.652 1960.87 257.923 1960.87 276.355ZM1911.38 262.701C1911.15 250.413 1906.71 240.628 1898.07 233.347C1889.42 225.837 1878.84 222.083 1866.32 222.083C1854.49 222.083 1844.48 225.724 1836.29 233.005C1828.32 240.06 1823.43 249.958 1821.61 262.701H1911.38ZM1983.46 280.451C1983.46 260.881 1987.45 243.814 1995.41 229.251C2003.38 214.46 2014.41 203.082 2028.52 195.117C2042.63 186.925 2058.78 182.829 2076.99 182.829C2100.43 182.829 2119.77 188.746 2135.02 200.579C2150.49 212.184 2160.84 228.568 2166.08 249.731H2114.54C2111.81 241.539 2107.14 235.167 2100.54 230.616C2094.17 225.837 2086.21 223.448 2076.65 223.448C2062.99 223.448 2052.19 228.454 2044.22 238.467C2036.26 248.252 2032.27 262.246 2032.27 280.451C2032.27 298.428 2036.26 312.422 2044.22 322.435C2052.19 332.22 2062.99 337.112 2076.65 337.112C2095.99 337.112 2108.62 328.465 2114.54 311.171H2166.08C2160.84 331.651 2150.49 347.921 2135.02 359.981C2119.54 372.042 2100.2 378.072 2076.99 378.072C2058.78 378.072 2042.63 374.09 2028.52 366.125C2014.41 357.933 2003.38 346.556 1995.41 331.992C1987.45 317.201 1983.46 300.02 1983.46 280.451ZM2313.04 375L2248.87 294.445V375H2201.09V122.413H2248.87V266.115L2312.36 185.901H2374.48L2291.2 280.792L2375.17 375H2313.04Z" fill="#1F1F1F"/>
</g>
<defs>
<clipPath id="clip0_818_64">
<rect width="1899" height="512" fill="white" transform="translate(477.867)"/>
</clipPath>
</defs>
</svg>
