<svg width="24" height="24" viewBox="0 0 24 24" fill="none" xmlns="http://www.w3.org/2000/svg">
<path d="M11.9333 5.83561L9.3281 15.5448C9.04172 16.6122 9.67521 17.7094 10.7427 17.9951L15.9312 19.3837C16.998 19.6692 18.0943 19.0361 18.3801 17.9694L20.9815 8.2608C21.2674 7.19387 20.6343 6.0972 19.5673 5.81132L14.3826 4.42206C13.3159 4.13625 12.2194 4.76904 11.9333 5.83561Z" fill="#101822" stroke="#F5F5F5" stroke-width="2"/>
<path d="M7.87334 5.73237L7.86928 17.5417C7.8689 18.6468 8.76481 19.5427 9.86988 19.5424L16.4125 19.5404C17.5168 19.5401 18.4119 18.6448 18.4119 17.5404V5.73306C18.4119 4.62849 17.5164 3.73306 16.4119 3.73306H9.87334C8.76904 3.73306 7.87372 4.62807 7.87334 5.73237Z" fill="#101822" stroke="#F5F5F5" stroke-width="2"/>
<path d="M3.52264 6.96181L7.02926 20.0667C7.3149 21.1343 8.41217 21.7678 9.4795 21.4815L16.9301 19.4827C17.9967 19.1966 18.6296 18.1001 18.3438 17.0334L14.8332 3.93186C14.5473 2.86493 13.4507 2.23176 12.3837 2.51765L4.93703 4.51299C3.87035 4.7988 3.23719 5.89504 3.52264 6.96181Z" fill="#101822" stroke="#F5F5F5" stroke-width="2"/>
<path d="M9.70172 8.00674C10.5636 7.79227 11.3326 7.81208 12.0005 8.07901H12.0015C12.5887 8.30391 13.0254 8.69921 13.3043 9.26065C13.4182 9.49014 13.2723 9.742 13.0455 9.79874L11.7388 10.1239C11.5326 10.1753 11.3502 10.0543 11.2564 9.91397C11.1734 9.78964 11.0508 9.69094 10.8795 9.62198L10.8746 9.62003C10.6447 9.51773 10.363 9.50049 10.0201 9.58585C9.72364 9.65963 9.52252 9.78572 9.39801 9.95108C9.28977 10.1031 9.26006 10.2959 9.33356 10.5507C9.38091 10.7148 9.47401 10.8342 9.61676 10.9169C9.78398 11.0007 9.97568 11.0602 10.1939 11.0927L10.6148 11.1249C10.7783 11.134 10.9647 11.1416 11.1744 11.1474L11.5875 11.162C11.9838 11.181 12.3272 11.2135 12.6168 11.2607C13.0166 11.3258 13.3885 11.4799 13.731 11.7216C14.0898 11.9748 14.3372 12.3572 14.48 12.8524C14.605 13.2858 14.5997 13.7199 14.4654 14.1513C14.3299 14.5862 14.0612 14.9709 13.6675 15.3046L13.6656 15.3056C13.2667 15.6341 12.756 15.873 12.1402 16.0263C11.5561 16.1716 10.9969 16.2107 10.4644 16.1415H10.4634C9.93725 16.07 9.47901 15.8899 9.09332 15.5985C8.77675 15.3594 8.5381 15.053 8.37946 14.6825C8.28261 14.4556 8.42985 14.221 8.64703 14.1669L9.92633 13.8485C10.1289 13.7981 10.3155 13.9128 10.4039 14.0692C10.5024 14.2437 10.6363 14.3708 10.8072 14.455L10.8961 14.4911C11.1101 14.5661 11.3669 14.5713 11.6734 14.495C12.0352 14.4049 12.2762 14.2608 12.4185 14.0761C12.5568 13.887 12.5921 13.6845 12.5259 13.455C12.4713 13.2656 12.3674 13.1329 12.2144 13.0458C12.0457 12.9499 11.8474 12.8888 11.6168 12.8671H11.6109C11.3766 12.8357 11.0524 12.8167 10.6363 12.8124H10.6343C10.0599 12.7995 9.58047 12.7661 9.19781 12.7108L9.19391 12.7099C8.80264 12.6427 8.43612 12.4915 8.09625 12.2577L8.09332 12.2558C7.74292 12.0003 7.49953 11.6139 7.35504 11.1132C7.21784 10.6375 7.22456 10.1831 7.38239 9.75674C7.51981 9.38551 7.75642 9.06371 8.08551 8.78995L8.23199 8.67471C8.63461 8.3717 9.12619 8.15 9.70172 8.00674Z" fill="#F5F5F5" stroke="#F5F5F5" stroke-width="0.3"/>
</svg>
