<svg width="24" height="24" viewBox="0 0 24 24" fill="none" xmlns="http://www.w3.org/2000/svg">
<path d="M11.1033 4.81699C11.4701 4.07374 12.5299 4.07374 12.8967 4.81699L14.7063 8.48347C14.8519 8.77862 15.1335 8.98319 15.4592 9.03051L19.5054 9.61846C20.3256 9.73765 20.6531 10.7456 20.0596 11.3242L17.1318 14.1781C16.8961 14.4079 16.7885 14.7389 16.8442 15.0632L17.5353 19.0931C17.6754 19.91 16.818 20.533 16.0844 20.1473L12.4653 18.2446C12.174 18.0915 11.826 18.0915 11.5347 18.2446L7.91562 20.1473C7.18199 20.533 6.32456 19.91 6.46467 19.0931L7.15585 15.0632C7.21148 14.7389 7.10393 14.4079 6.86825 14.1781L3.94038 11.3242C3.34687 10.7456 3.67438 9.73765 4.4946 9.61846L8.54081 9.03051C8.86652 8.98319 9.14808 8.77862 9.29374 8.48347L11.1033 4.81699Z" stroke="#F5F5F5" stroke-width="2" stroke-linejoin="round"/>
</svg>
