<svg width="24" height="24" viewBox="0 0 24 24" fill="none" xmlns="http://www.w3.org/2000/svg">
<path d="M14.3144 10C14.3144 11.5544 13.5748 12.9077 12.4346 13.8135C14.7558 14.9921 16.3452 17.3072 16.9316 19.7871C17.1446 20.6884 16.8455 21.5235 16.291 22.1035C15.7487 22.6706 14.9647 23 14.1367 23H3.86327C3.0353 23 2.25126 22.6706 1.70897 22.1035C1.15452 21.5235 0.855328 20.6884 1.06834 19.7871C1.6547 17.3075 3.24361 14.9922 5.56444 13.8135C4.42451 12.9077 3.68553 11.5541 3.68553 10C3.68553 7.16857 6.13736 5 8.99998 5C11.8626 5 14.3144 7.16857 14.3144 10Z" fill="#1F1F1F"/>
<path d="M15.0003 1C17.8255 1.00015 20.2005 3.19326 20.2005 6C20.2005 7.54619 19.4782 8.90474 18.3587 9.81445C20.632 10.9976 22.1787 13.3224 22.7473 15.793C23.175 17.6515 21.5774 18.9998 20.0003 19H18.8391C18.2836 16.927 17.1127 14.9066 15.4163 13.4131C15.9998 12.4227 16.3411 11.2666 16.3411 9.99512C16.3411 6.51932 13.7979 3.90253 10.6946 3.19238C11.638 1.8601 13.2309 1 15.0003 1Z" fill="#1F1F1F"/>
</svg>
