<svg width="24" height="24" viewBox="0 0 24 24" fill="none" xmlns="http://www.w3.org/2000/svg">
<path d="M22.833 10.6201C22.8328 11.8424 21.8424 12.8328 20.6201 12.833H20C19.908 12.833 19.833 12.908 19.833 13V20C19.833 21.5648 18.5648 22.833 17 22.833H15.5C14.4875 22.833 13.667 22.0125 13.667 21V14.5C13.667 13.5795 12.9205 12.833 12 12.833C11.0795 12.833 10.333 13.5795 10.333 14.5V21C10.333 22.0125 9.51252 22.833 8.5 22.833H7C5.43519 22.833 4.16699 21.5648 4.16699 20V13C4.16699 12.908 4.09205 12.833 4 12.833H3.37988C2.15763 12.8328 1.16716 11.8424 1.16699 10.6201C1.16699 9.98805 1.4369 9.38586 1.90918 8.96582L9.69922 2.04199C10.3332 1.47843 11.1517 1.16699 12 1.16699C12.8483 1.16699 13.6668 1.47843 14.3008 2.04199L22.0908 8.96582C22.5631 9.38586 22.833 9.98805 22.833 10.6201Z" fill="#1F1F1F"/>
</svg>
