<svg width="24" height="24" viewBox="0 0 24 24" fill="none" xmlns="http://www.w3.org/2000/svg">
<path d="M12.1014 12.4734C13.4735 12.4735 14.5881 13.5271 14.9677 14.9734H9.23523C9.61477 13.5271 10.7294 12.4735 12.1014 12.4734Z" fill="#1F1F1F"/>
<path d="M12.1014 7.97345C12.9364 7.97347 13.5018 8.59292 13.5018 9.22345C13.5018 9.85398 12.9364 10.4734 12.1014 10.4734C11.2665 10.4734 10.701 9.85399 10.701 9.22345C10.7011 8.59291 11.2665 7.97345 12.1014 7.97345Z" fill="#1F1F1F"/>
<path fill-rule="evenodd" clip-rule="evenodd" d="M17.1014 0.97345C18.7583 0.97345 20.1014 2.3166 20.1014 3.97345V19.9734C20.1014 21.6303 18.7583 22.9734 17.1014 22.9734H7.10144C5.44459 22.9734 4.10144 21.6303 4.10144 19.9734V3.97345C4.10144 2.3166 5.44459 0.97345 7.10144 0.97345H17.1014ZM12.1014 5.97345C10.2854 5.97345 8.70105 7.36871 8.70105 9.22345C8.70105 10.0205 8.99481 10.7319 9.47253 11.285C8.29 12.0982 7.50693 13.421 7.22546 14.7772C6.95533 16.0789 8.06669 16.9734 9.10144 16.9734H15.1014C16.1362 16.9734 17.2475 16.0788 16.9774 14.7772C16.6959 13.4208 15.9123 12.0982 14.7294 11.285C15.2073 10.7318 15.5018 10.0207 15.5018 9.22345C15.5018 7.36872 13.9174 5.97347 12.1014 5.97345Z" fill="#1F1F1F"/>
</svg>
