<svg width="24" height="24" viewBox="0 0 24 24" fill="none" xmlns="http://www.w3.org/2000/svg">
<path d="M12.3632 1C13.6879 1.00015 14.8566 1.86981 15.2372 3.13867L15.5575 4.20801L15.5897 4.30078C15.7742 4.751 16.2625 5.00747 16.745 4.89355L17.8339 4.63672C19.1226 4.33252 20.4596 4.90913 21.1219 6.05664L21.6337 6.94336C22.2961 8.09103 22.1262 9.53717 21.2177 10.501L20.452 11.3135L20.451 11.3125C20.0884 11.6974 20.0888 12.3001 20.452 12.6855L21.2186 13.499C22.1272 14.4633 22.2957 15.9097 21.6337 17.0566L21.1219 17.9434C20.4594 19.0911 19.1219 19.667 17.8329 19.3623L16.746 19.1064C16.2306 18.9847 15.7095 19.2848 15.5575 19.791L15.2362 20.8613C14.8558 22.1298 13.6884 22.9998 12.3632 23H11.3387C10.0144 22.9998 8.84669 22.1313 8.4657 20.8633L8.14441 19.791C7.9923 19.2849 7.47127 18.9837 6.95593 19.1055L5.87 19.3633C4.58043 19.6684 3.24341 19.0905 2.58093 17.9434L2.06824 17.0557C1.40626 15.9086 1.57546 14.463 2.48328 13.499L3.2489 12.6846C3.61163 12.2992 3.61214 11.6982 3.24988 11.3135L2.48425 10.501C1.57627 9.5374 1.40566 8.09123 2.06824 6.94336L2.06921 6.94238L2.58191 6.05566C3.24411 4.90969 4.5799 4.33142 5.86902 4.63574L6.95593 4.89258C7.47108 5.0142 7.9922 4.71401 8.14441 4.20801L8.4657 3.13672C8.8467 1.86873 10.0142 1.00009 11.3387 1H12.3632ZM11.9999 9C10.3431 9.00005 8.99988 10.3432 8.99988 12C8.99988 13.6568 10.3431 14.9999 11.9999 15C13.6567 15 14.9999 13.6569 14.9999 12C14.9999 10.3431 13.6567 9 11.9999 9Z" fill="#1F1F1F"/>
</svg>
