<svg width="24" height="24" viewBox="0 0 24 24" fill="none" xmlns="http://www.w3.org/2000/svg">
<path d="M20 9C20 8.48234 19.6067 8.05622 19.1025 8.00488L19 8H16C15.6212 8 15.2749 7.78605 15.1055 7.44727L14.3818 6H9.61816L8.89453 7.44727C8.72514 7.78605 8.37877 8 8 8H5C4.44772 8 4.00001 8.44772 4 9V17C4 17.5523 4.44772 18 5 18H19C19.5523 18 20 17.5523 20 17V9ZM22 17C22 18.6569 20.6569 20 19 20H5C3.34315 20 2 18.6569 2 17V9C2.00001 7.34315 3.34315 6 5 6H7.38184L8.10547 4.55273L8.17676 4.43164C8.36169 4.16367 8.66854 4 9 4H15C15.3788 4 15.7251 4.21395 15.8945 4.55273L16.6182 6H19C20.6568 6.00001 22 7.34314 22 9V17Z" fill="#1F1F1F"/>
<path d="M14.5 13C14.5 11.6193 13.3807 10.5 12 10.5C10.6193 10.5 9.5 11.6193 9.5 13C9.5 14.3807 10.6193 15.5 12 15.5C13.3807 15.5 14.5 14.3807 14.5 13ZM16.5 13C16.5 15.4853 14.4853 17.5 12 17.5C9.51472 17.5 7.5 15.4853 7.5 13C7.5 10.5147 9.51472 8.5 12 8.5C14.4853 8.5 16.5 10.5147 16.5 13Z" fill="#1F1F1F"/>
<path d="M19 10C19 10.5523 18.5523 11 18 11C17.4477 11 17 10.5523 17 10C17 9.44772 17.4477 9 18 9C18.5523 9 19 9.44772 19 10Z" fill="#1F1F1F"/>
</svg>
