<svg width="24" height="24" viewBox="0 0 24 24" fill="none" xmlns="http://www.w3.org/2000/svg">
<path d="M4 17.0001V6.71401C4.00015 5.05728 5.34323 3.71401 7 3.71401H10.7139C11.2661 3.71401 11.7137 4.16185 11.7139 4.71401C11.7139 5.2663 11.2662 5.71401 10.7139 5.71401H7C6.44781 5.71401 6.00015 6.16185 6 6.71401V17.0001C6.00008 17.5524 6.44777 18.0001 7 18.0001H17.2861C17.8382 17.9999 18.2861 17.5522 18.2861 17.0001V13.2853C18.2864 12.7332 18.734 12.2853 19.2861 12.2853C19.8381 12.2855 20.2859 12.7333 20.2861 13.2853V17.0001C20.2861 18.6568 18.9427 19.9999 17.2861 20.0001H7C5.3432 20.0001 4.00008 18.6569 4 17.0001ZM15.7285 4.00015C16.5095 3.21914 17.7756 3.21924 18.5566 4.00015L20 5.44253C20.781 6.22358 20.781 7.49058 20 8.27163L14.4023 13.8693C13.2211 15.0505 11.6187 15.714 9.94824 15.714C9.03016 15.714 8.28613 14.97 8.28613 14.0519C8.28614 12.3814 8.94963 10.779 10.1309 9.5978L15.7285 4.00015ZM11.5449 11.0119C10.8225 11.7343 10.3842 12.6878 10.3008 13.6984C11.3116 13.6152 12.2647 13.1777 12.9873 12.4552L18.5859 6.85757L17.1426 5.41421L11.5449 11.0119Z" fill="#1F1F1F"/>
</svg>
