<svg width="24" height="24" viewBox="0 0 24 24" fill="none" xmlns="http://www.w3.org/2000/svg">
<path d="M9.44232 2C10.4691 2 11.4079 2.58062 11.8671 3.49902L13.5058 6.77637L13.8945 6.64746C14.7735 6.35447 15.6957 6.49306 16.4296 6.9502L16.5986 6.88379C18.2346 6.22943 20.0794 7.11904 20.5859 8.80664L22.2997 14.5195C22.8177 16.246 22.1173 18.1062 20.5888 19.0615L16.0507 21.8975C14.8018 22.6779 13.2249 22.7092 11.9462 21.9785L10.0038 20.8682H10.0029L5.74506 18.5459C4.61166 17.9277 4.08406 16.5861 4.49213 15.3613C4.97738 13.9056 6.5879 13.1586 8.01264 13.7285L9.65131 14.3838C9.81146 14.4477 9.98307 14.3367 9.99701 14.1689L6.89447 5.6377C6.25159 3.86978 7.5612 2.00016 9.44232 2ZM4.55267 6.10547C4.78989 5.98686 5.06474 5.96789 5.31635 6.05176C5.56782 6.13567 5.77591 6.31561 5.89447 6.55273L6.89447 8.55273C7.14146 9.04671 6.94118 9.64754 6.44721 9.89453C6.00278 10.1167 5.47323 9.97595 5.19135 9.58594L4.70502 11.0449C5.16435 10.9025 5.67237 11.1085 5.89447 11.5527C6.14142 12.0467 5.94117 12.6476 5.44721 12.8945L3.44721 13.8945C3.21 14.0131 2.93513 14.0321 2.68353 13.9482C2.43207 13.8643 2.22398 13.6844 2.10541 13.4473L1.10541 11.4473C0.858425 10.9533 1.05872 10.3525 1.55267 10.1055C1.99669 9.88346 2.52547 10.0239 2.80756 10.4131L3.29389 8.9541C2.83472 9.09618 2.32741 8.89126 2.10541 8.44727C1.85843 7.95329 2.0587 7.35246 2.55267 7.10547L4.55267 6.10547ZM11.9999 14.1475C11.9998 15.7422 10.3889 16.8325 8.90814 16.2402L7.27045 15.585C6.91422 15.4425 6.51102 15.6293 6.38959 15.9932C6.28748 16.2995 6.4196 16.6354 6.70307 16.79L10.9785 19.1221C10.9843 19.1252 10.9903 19.1286 10.996 19.1318L12.9384 20.2422C13.5778 20.6075 14.3667 20.5915 14.9912 20.2012L19.5283 17.3652C20.2924 16.8876 20.6436 15.9579 20.3847 15.0947L18.6708 9.38184C18.5431 8.95607 18.1594 8.68322 17.7441 8.66992L17.9287 9.12891C18.1335 9.64161 17.8837 10.2236 17.371 10.4287C16.8583 10.6336 16.2763 10.3838 16.0712 9.87109L15.7714 9.12207C15.5747 8.63075 15.0294 8.37764 14.5273 8.54492L14.4091 8.58301L14.8945 9.55273C15.1415 10.0467 14.9412 10.6475 14.4472 10.8945C13.9532 11.1415 13.3524 10.9412 13.1054 10.4473L10.0781 4.39258C9.95757 4.152 9.71142 4 9.44232 4C8.94913 4.00016 8.60579 4.49055 8.77435 4.9541L11.8896 13.5195C11.9627 13.7207 11.9999 13.9334 11.9999 14.1475Z" fill="#1F1F1F"/>
</svg>
