<svg width="24" height="24" viewBox="0 0 24 24" fill="none" xmlns="http://www.w3.org/2000/svg">
<path d="M15.5995 7C15.5995 4.80944 13.7831 3 11.4999 3C9.21681 3.00001 7.40033 4.80944 7.40033 7C7.40033 9.19056 9.21681 11 11.4999 11C13.7831 11 15.5995 9.19056 15.5995 7ZM11.4999 13C7.73009 13 4.86972 16.2243 4.16204 20.1865C4.12533 20.3927 4.1864 20.5756 4.32806 20.7256C4.47802 20.8842 4.71824 21 4.99994 21H17.9999C18.2816 21 18.5219 20.8842 18.6718 20.7256C18.8135 20.5756 18.8745 20.3927 18.8378 20.1865C18.1302 16.2242 15.2698 13 11.4999 13ZM17.5995 7C17.5995 8.98087 16.6276 10.726 15.1357 11.8164C18.1872 13.2718 20.2075 16.4809 20.8066 19.835C21.1314 21.6553 19.5985 23 17.9999 23H4.99994C3.40135 23 1.86846 21.6553 2.19329 19.835C2.79229 16.4812 4.81216 13.272 7.86322 11.8164C6.37169 10.726 5.40033 8.98059 5.40033 7C5.40033 3.66772 8.14977 1.00001 11.4999 1C14.8501 1 17.5995 3.66772 17.5995 7Z" fill="#1F1F1F"/>
</svg>
