<svg width="24" height="24" viewBox="0 0 24 24" fill="none" xmlns="http://www.w3.org/2000/svg">
<path fill-rule="evenodd" clip-rule="evenodd" d="M12.1248 1.55159C13.378 1.21582 14.6557 1.72782 15.3582 2.73323H16.4119C17.6984 2.73339 18.7923 3.54469 19.2185 4.68245L19.826 4.84554C21.4261 5.27444 22.3766 6.91917 21.948 8.51937L19.3465 18.2274C19.3191 18.3295 19.2857 18.4286 19.2488 18.5252C18.935 19.436 18.1896 20.1797 17.1892 20.4481L9.73904 22.4481C8.1382 22.8774 6.49183 21.9261 6.06326 20.325L2.55643 7.22054C2.12831 5.62058 3.07787 3.97568 4.67752 3.54671L12.1248 1.55159ZM13.867 4.19026C13.7238 3.65712 13.1756 3.34039 12.6424 3.48323L5.1951 5.47933C4.66227 5.62259 4.34542 6.17083 4.48807 6.70394L7.99588 19.8084C8.13889 20.3418 8.68704 20.6595 9.22049 20.5164L16.6707 18.5164C17.204 18.3734 17.5206 17.8252 17.3777 17.2918L13.867 4.19026ZM19.4119 10.2537L20.0154 8.00179C20.1488 7.50384 19.8819 6.99239 19.4119 6.81038V10.2537ZM17.4119 9.69026V5.73323C17.4119 5.18107 16.964 4.73343 16.4119 4.73323H16.0838L17.4119 9.69026Z" fill="#1F1F1F"/>
<path d="M9.66556 7.86122C10.5489 7.64143 11.3504 7.65861 12.0542 7.93934L12.0552 7.93837C12.6774 8.17667 13.1423 8.59892 13.438 9.19423C13.5995 9.51946 13.3905 9.86711 13.0816 9.94423L11.7749 10.2694C11.4874 10.341 11.2474 10.1707 11.1314 9.99696C11.0674 9.9013 10.9702 9.82094 10.8228 9.76161L10.813 9.7577C10.6216 9.67258 10.3759 9.65176 10.0562 9.73134C9.78537 9.79876 9.61952 9.90835 9.52103 10.037C9.4448 10.1434 9.41284 10.2869 9.47708 10.5097C9.51351 10.6357 9.58173 10.7223 9.68802 10.785C9.8369 10.859 10.01 10.9129 10.2105 10.9433C10.4402 10.9673 10.7623 10.9855 11.1792 10.997C11.7579 11.01 12.2461 11.0479 12.6411 11.1122C13.0645 11.1812 13.4575 11.3452 13.8179 11.5995C14.2103 11.8765 14.4735 12.2904 14.6236 12.8104C14.7567 13.2721 14.752 13.7368 14.6089 14.1962C14.4636 14.6625 14.176 15.0698 13.7642 15.4188L13.7613 15.4218C13.3412 15.7677 12.8082 16.0145 12.1763 16.1718C11.5765 16.321 10.9982 16.3628 10.4449 16.2909L10.4439 16.2899C9.89511 16.2154 9.41113 16.0273 9.00247 15.7186C8.66468 15.4634 8.41043 15.136 8.24173 14.7421C8.10361 14.4195 8.31519 14.095 8.61087 14.0214L9.89017 13.703L9.99369 13.6874C10.2316 13.6738 10.4348 13.8183 10.5347 13.995C10.6193 14.1447 10.7319 14.2508 10.8755 14.3212C11.0665 14.409 11.3134 14.4301 11.6372 14.3495C11.9778 14.2646 12.1824 14.1342 12.2974 13.9862C12.4075 13.8353 12.4348 13.6812 12.3814 13.496C12.3367 13.3414 12.2566 13.2419 12.1402 13.1757C11.9924 13.0916 11.8147 13.0365 11.6021 13.0165L11.5904 13.0155C11.365 12.9854 11.0478 12.9671 10.6343 12.9628H10.6314C10.0535 12.9498 9.56717 12.9157 9.1763 12.8593L9.16849 12.8583C8.75483 12.7873 8.36815 12.6272 8.01126 12.3817L8.00443 12.3768C7.6206 12.0969 7.36168 11.6784 7.21048 11.1542C7.06555 10.6516 7.07162 10.1647 7.24173 9.70497C7.41042 9.24927 7.7164 8.86552 8.1431 8.5536C8.56442 8.23687 9.07503 8.00821 9.66556 7.86122Z" fill="#1F1F1F"/>
</svg>
