<svg width="24" height="24" viewBox="0 0 24 24" fill="none" xmlns="http://www.w3.org/2000/svg">
<path d="M10.2061 4.37403C10.9397 2.88771 13.0603 2.88771 13.794 4.37403L15.6025 8.04102L19.6494 8.62891C21.2896 8.86742 21.9445 10.883 20.7578 12.04L17.8301 14.8945L18.5205 18.9238C18.8007 20.5576 17.0864 21.8036 15.6192 21.0322L12 19.1299L8.38087 21.0322C6.91362 21.8036 5.19928 20.5576 5.4795 18.9238L6.16993 14.8945L3.2422 12.04C2.05549 10.883 2.71041 8.86742 4.3506 8.62891L8.39747 8.04102L10.2061 4.37403ZM10.1904 8.92579C9.89912 9.51607 9.336 9.92586 8.68458 10.0205L4.63868 10.6084L7.56642 13.4619C8.03778 13.9214 8.25289 14.5836 8.14161 15.2324L7.45021 19.2617L11.0693 17.3594C11.652 17.0531 12.3481 17.0531 12.9307 17.3594L16.5498 19.2617L15.8584 15.2324C15.7471 14.5836 15.9622 13.9214 16.4336 13.4619L19.3613 10.6084L15.3154 10.0205C14.664 9.92586 14.1009 9.51607 13.8096 8.92579L12 5.25977L10.1904 8.92579Z" fill="#1F1F1F"/>
</svg>
