<svg width="24" height="24" viewBox="0 0 24 24" fill="none" xmlns="http://www.w3.org/2000/svg">
<path d="M14.9598 7.29297C15.3503 6.90245 15.9833 6.90245 16.3738 7.29297C16.7644 7.68349 16.7644 8.31651 16.3738 8.70703L13.0809 12L16.3738 15.293L16.4422 15.3691C16.7625 15.7619 16.7399 16.3409 16.3738 16.707C16.0077 17.0731 15.4287 17.0957 15.0359 16.7754L14.9598 16.707L11.6668 13.4141L8.37383 16.707C7.9833 17.0976 7.35029 17.0976 6.95976 16.707C6.56924 16.3165 6.56924 15.6835 6.95976 15.293L10.2527 12L6.95976 8.70703C6.56924 8.31651 6.56924 7.68349 6.95976 7.29297C7.35029 6.90245 7.9833 6.90245 8.37383 7.29297L11.6668 10.5859L14.9598 7.29297Z" fill="#1F1F1F"/>
</svg>
